<svg id="Layer_1" data-name="Layer 1" xmlns="http://www.w3.org/2000/svg" viewBox="0 0 42 42"><defs><style>.cls-1{isolation:isolate;}.cls-2{fill:#fff;}</style></defs><g id="Pen-alt" class="cls-1"><g class="cls-1"><path class="cls-2" d="M42.46,13.29,36.35,19.4,33.5,22.25,20.21,35.54a31.22,31.22,0,0,1-16,7.7H4A2,2,0,0,1,2,41.06v0a31.2,31.2,0,0,1,7.7-16L23,11.75l.61-.61L20.83,8.36l-9.29,9.27a1.29,1.29,0,0,1-1.85,0l-.93-.92a1.32,1.32,0,0,1,0-1.86l9.75-9.74a3.28,3.28,0,0,1,4.64,0l3.24,3.25L32,2.79a5.24,5.24,0,0,1,7.42,0l3.08,3.08A5.24,5.24,0,0,1,42.46,13.29ZM30.72,19.47l.61-.61-4.94-4.94-.61.61L12.49,27.83A23,23,0,0,0,6.37,38.88a22.91,22.91,0,0,0,11.05-6.12Zm9.34-9.89a1.31,1.31,0,0,0-.38-.93L36.6,5.57a1.31,1.31,0,0,0-.93-.38,1.33,1.33,0,0,0-.93.38l-5.56,5.57.93.93,4,4,5.57-5.57A1.3,1.3,0,0,0,40.06,9.58Z" transform="translate(-2 -1.25)"/></g></g></svg>