<?xml version="1.0" encoding="UTF-8" standalone="no"?>
<!DOCTYPE svg PUBLIC "-//W3C//DTD SVG 1.1//EN" "http://www.w3.org/Graphics/SVG/1.1/DTD/svg11.dtd">
<svg width="100%" height="100%" viewBox="0 0 200 200" version="1.1" xmlns="http://www.w3.org/2000/svg" xmlns:xlink="http://www.w3.org/1999/xlink" xml:space="preserve" xmlns:serif="http://www.serif.com/" style="fill-rule:evenodd;clip-rule:evenodd;stroke-linejoin:round;stroke-miterlimit:2;">
    <g transform="matrix(1,0,0,1,3.84088,27.7174)">
        <g transform="matrix(30,0,0,30,72.1708,143.621)">
            <path d="M0.477,-0.551L0.286,-0.551L0.286,-0.61C0.286,-0.637 0.283,-0.655 0.278,-0.662C0.273,-0.67 0.265,-0.673 0.254,-0.673C0.242,-0.673 0.232,-0.668 0.226,-0.658C0.219,-0.648 0.216,-0.633 0.216,-0.612C0.216,-0.586 0.22,-0.566 0.227,-0.553C0.234,-0.539 0.253,-0.523 0.285,-0.504C0.377,-0.45 0.434,-0.405 0.458,-0.371C0.482,-0.336 0.494,-0.28 0.494,-0.202C0.494,-0.146 0.487,-0.104 0.474,-0.078C0.461,-0.051 0.435,-0.029 0.397,-0.01C0.36,0.008 0.316,0.017 0.266,0.017C0.211,0.017 0.164,0.006 0.125,-0.015C0.086,-0.035 0.06,-0.062 0.048,-0.094C0.036,-0.126 0.03,-0.172 0.03,-0.231L0.03,-0.283L0.221,-0.283L0.221,-0.187C0.221,-0.157 0.224,-0.138 0.229,-0.13C0.235,-0.121 0.244,-0.117 0.258,-0.117C0.271,-0.117 0.282,-0.123 0.288,-0.133C0.295,-0.144 0.298,-0.16 0.298,-0.181C0.298,-0.228 0.292,-0.258 0.279,-0.272C0.266,-0.287 0.234,-0.311 0.183,-0.344C0.132,-0.378 0.098,-0.403 0.082,-0.418C0.065,-0.433 0.051,-0.454 0.04,-0.481C0.029,-0.508 0.024,-0.543 0.024,-0.585C0.024,-0.646 0.032,-0.69 0.047,-0.718C0.063,-0.746 0.088,-0.768 0.122,-0.783C0.157,-0.799 0.198,-0.807 0.247,-0.807C0.3,-0.807 0.346,-0.799 0.384,-0.781C0.421,-0.764 0.446,-0.742 0.458,-0.716C0.47,-0.69 0.477,-0.645 0.477,-0.583L0.477,-0.551Z" style="fill:rgb(0,102,0);fill-rule:nonzero;"/>
        </g>
        <g transform="matrix(30,0,0,30,87.6835,143.621)">
            <path d="M0.53,-0.791L0.425,-0L0.113,-0L-0.006,-0.791L0.211,-0.791C0.236,-0.573 0.254,-0.389 0.265,-0.238C0.276,-0.39 0.287,-0.525 0.299,-0.644L0.313,-0.791L0.53,-0.791Z" style="fill:rgb(0,102,0);fill-rule:nonzero;"/>
        </g>
        <g transform="matrix(30,0,0,30,103.387,143.621)">
            <path d="M0.513,-0.5L0.307,-0.5L0.307,-0.571C0.307,-0.617 0.305,-0.645 0.301,-0.656C0.297,-0.668 0.288,-0.673 0.273,-0.673C0.261,-0.673 0.252,-0.668 0.248,-0.659C0.243,-0.649 0.241,-0.624 0.241,-0.583L0.241,-0.204C0.241,-0.169 0.243,-0.145 0.248,-0.134C0.252,-0.123 0.261,-0.117 0.275,-0.117C0.29,-0.117 0.3,-0.124 0.305,-0.136C0.311,-0.149 0.313,-0.174 0.313,-0.21L0.313,-0.304L0.272,-0.304L0.272,-0.424L0.513,-0.424L0.513,-0L0.384,-0L0.365,-0.057C0.35,-0.032 0.333,-0.014 0.311,-0.002C0.29,0.01 0.265,0.017 0.236,0.017C0.201,0.017 0.169,0.008 0.139,-0.009C0.109,-0.025 0.086,-0.046 0.07,-0.071C0.055,-0.096 0.045,-0.122 0.041,-0.149C0.037,-0.176 0.035,-0.217 0.035,-0.271L0.035,-0.506C0.035,-0.581 0.039,-0.636 0.047,-0.67C0.056,-0.705 0.079,-0.736 0.117,-0.764C0.156,-0.793 0.206,-0.807 0.267,-0.807C0.327,-0.807 0.377,-0.795 0.417,-0.77C0.457,-0.745 0.483,-0.716 0.495,-0.682C0.507,-0.648 0.513,-0.598 0.513,-0.534L0.513,-0.5Z" style="fill:rgb(0,102,0);fill-rule:nonzero;"/>
        </g>
    </g>
</svg>
