<svg xmlns="http://www.w3.org/2000/svg" preserveAspectRatio="xMidYMid" viewBox="0 0 256 335">
  <defs/>
  <defs>
    <linearGradient id="a" x1="26.82%" x2="67.58%" y1="48.22%" y2="55.34%">
      <stop offset="0%" stop-color="#FF6533"/>
      <stop offset="15.7%" stop-color="#FF5633"/>
      <stop offset="43.4%" stop-color="#FF4333"/>
      <stop offset="71.4%" stop-color="#FF3733"/>
      <stop offset="100%" stop-color="#F33"/>
    </linearGradient>
    <linearGradient id="b" x1="20.45%" x2="93.49%" y1="38.13%" y2="80.43%">
      <stop offset="0%" stop-color="#BF3338"/>
      <stop offset="100%" stop-color="#F33"/>
    </linearGradient>
    <linearGradient id="c" x1="32.29%" x2="45.56%" y1="39.5%" y2="48.91%">
      <stop offset="0%" stop-color="#FF6533"/>
      <stop offset="15.7%" stop-color="#FF5633"/>
      <stop offset="43.4%" stop-color="#FF4333"/>
      <stop offset="71.4%" stop-color="#FF3733"/>
      <stop offset="100%" stop-color="#F33"/>
    </linearGradient>
    <linearGradient id="d" x1="51.56%" x2="48.52%" y1="78.34%" y2="41.66%">
      <stop offset="0%" stop-color="#FF6533"/>
      <stop offset="15.7%" stop-color="#FF5633"/>
      <stop offset="43.4%" stop-color="#FF4333"/>
      <stop offset="71.4%" stop-color="#FF3733"/>
      <stop offset="100%" stop-color="#F33"/>
    </linearGradient>
    <linearGradient id="e" x1="40.2%" x2="53.98%" y1="47.21%" y2="54.53%">
      <stop offset="0%" stop-color="#FBB040"/>
      <stop offset="100%" stop-color="#FB8840"/>
    </linearGradient>
    <linearGradient id="f" x1="55.22%" x2="40.93%" y1="5.89%" y2="128.02%">
      <stop offset="0%" stop-color="#FFF"/>
      <stop offset="100%" stop-color="#FFF" stop-opacity="0"/>
    </linearGradient>
  </defs>
  <path fill="url(#a)" d="M256 110.13C256 90.45 250.84 72 241.76 56c-24.07-24.78-76.44-30.52-89.45-.11-13.36 31.16 22.44 65.84 38.08 63.09 19.92-3.52-3.52-49.21-3.52-49.21 30.47 57.41 23.44 39.84-31.63 92.56S43.94 326.3 35.74 330.98c-.36.24-.7.41-1.12.59h216c3.8 0 6.26-4.04 4.56-7.44l-56.47-111.77a5.11 5.11 0 011.99-6.74 109.96 109.96 0 0055.3-95.49z"/>
  <path fill="url(#b)" d="M256 110.13C256 90.45 250.84 72 241.76 56c-24.07-24.78-76.44-30.52-89.45-.11-13.36 31.16 22.44 65.84 38.08 63.09 19.92-3.52-3.52-49.21-3.52-49.21 30.47 57.41 23.44 39.84-31.63 92.56S43.94 326.3 35.74 330.98c-.36.24-.7.41-1.12.59h216c3.8 0 6.26-4.04 4.56-7.44l-56.47-111.77a5.11 5.11 0 011.99-6.74 109.96 109.96 0 0055.3-95.49z"/>
  <path fill="url(#c)" d="M35.73 330.98c8.2-4.68 64.44-115.99 119.51-168.71 55.07-52.72 62.1-35.15 31.63-92.56 0 0-116.57 163.44-158.75 244.29"/>
  <path fill="url(#d)" d="M52.14 184.53C130.87 39.78 141.18 25.2 182.19 25.2c21.56 0 43.29 9.72 57.35 27A109.97 109.97 0 00147.62.07H13.88a5.1 5.1 0 00-5.1 5.1v269.59c7.97-20.57 21.5-49.97 43.36-90.22z"/>
  <path fill="url(#e)" d="M155.24 162.27c-55.07 52.72-111.3 164.03-119.5 168.71-8.2 4.69-21.97 5.28-29.3-2.93-7.79-8.72-19.91-22.84 45.7-143.52C130.87 39.78 141.18 25.2 182.19 25.2c21.56 0 43.29 9.72 57.35 27 .76 1.24 1.52 2.52 2.28 3.81-24.07-24.78-76.45-30.52-89.45-.11-13.36 31.16 22.44 65.84 38.08 63.09 19.92-3.52-3.52-49.21-3.52-49.21 30.4 57.35 23.38 39.78-31.69 92.5z"/>
  <path fill="url(#f)" d="M58.58 190.97C137.31 46.22 147.62 31.63 188.63 31.63a75.27 75.27 0 0149.21 18.57c-14.06-16.05-34.91-25.01-55.65-25.01-41 0-51.32 14.59-130.05 159.34-65.61 120.68-53.49 134.8-45.7 143.52a19.19 19.19 0 003.75 3.17c-6.85-9.96-9.9-33.1 48.4-140.25z" opacity=".3"/>
</svg>
