<?xml version="1.0" encoding="UTF-8" standalone="no"?>
<!DOCTYPE svg PUBLIC "-//W3C//DTD SVG 1.1//EN" "http://www.w3.org/Graphics/SVG/1.1/DTD/svg11.dtd">
<svg width="100%" height="100%" viewBox="0 0 32 28" version="1.1" xmlns="http://www.w3.org/2000/svg" xmlns:xlink="http://www.w3.org/1999/xlink" xml:space="preserve" xmlns:serif="http://www.serif.com/" style="fill-rule:evenodd;clip-rule:evenodd;stroke-linecap:round;stroke-linejoin:round;stroke-miterlimit:1.5;">
    <g id="background">
        <rect id="rect3007" x="0" y="0" width="32" height="32" style="fill:none;"/>
    </g>
    <g transform="matrix(1,0,0,1.00692,0,-0.193373)">
        <g id="Layer1">
            <rect x="0.044" y="0.192" width="31.802" height="27.75" style="fill:white;"/>
        </g>
    </g>
    <g id="logo_milkjs.svg" transform="matrix(0.0587798,0,0,0.0587798,8.63111,15.7439)">
        <g transform="matrix(1,0,0,1,-144,-144)">
            <path d="M104.32,17.33L104.32,39.26L112.22,49.33L113.8,63.36L77.85,113.14L78.25,263.65L95.43,276.89L197.16,275.51L214.15,253.58L212.17,111.75L175.24,63.35L176.82,43.61L185.51,32.35L183.93,15.95L144.03,10.62L104.33,17.33" style="fill:white;stroke:black;stroke-width:1px;"/>
            <path d="M125.94,107.6C129.84,99.45 126.74,95.7 119.02,99.2C111.28,102.71 101.86,112.16 97.95,120.3C94.05,128.45 97.15,132.21 104.87,128.7C112.61,125.19 122.04,115.74 125.94,107.6Z" style="fill-rule:nonzero;"/>
            <path d="M106.33,286.55L181.67,286.55C208.17,286.55 223.97,268.93 223.97,239.49L223.97,132.03C223.97,106.33 212.37,93.01 203.92,83.28L202.19,81.27C200.99,79.94 199.83,78.58 198.69,77.2C196.63,74.77 194.76,72.76 192.99,70.85C187.33,64.82 184.19,61.45 184.19,53.79L184.19,50.99C187.24,49.438 189.871,47.174 191.86,44.39C192.33,43.84 192.76,43.18 192.98,42.76C193.622,41.779 194.187,40.749 194.67,39.68C195,38.86 195.28,38.01 195.5,37.15C195.7,36.69 195.88,36.17 195.93,35.85C196.48,33.73 196.81,31.57 196.91,29.39L196.91,19.68C196.91,13.74 193.27,8.56 188.08,6.87L187.8,6.73L186.81,6.45C172.784,3.136 158.422,1.458 144.01,1.45C129.65,1.45 115.26,3.13 101.19,6.45L100.21,6.78C94.702,8.633 90.999,13.869 91.09,19.68L91.09,29.63C91.24,31.92 91.56,33.97 91.99,35.61C92.12,36.12 92.26,36.64 92.45,37.15C92.68,37.99 93.01,38.88 93.43,39.95C93.95,40.94 94.42,41.87 94.88,42.53C95.3,43.26 95.78,43.96 96.28,44.63C98.25,47.33 100.83,49.53 103.81,51.03L103.81,53.79C103.81,61.45 100.68,64.82 95.02,70.85C93.24,72.77 91.38,74.77 89.32,77.21C88.2,78.51 87.02,79.87 85.91,81.23L84.13,83.23C75.63,92.95 64.03,106.33 64.03,132.03L64.03,239.48C64.03,268.93 79.83,286.54 106.33,286.54L106.33,286.55ZM109.79,24.35C109.79,23.97 110.07,23.65 110.45,23.55C121.487,21.271 132.73,20.132 144,20.15C155.273,20.133 166.519,21.272 177.56,23.55C177.93,23.64 178.21,23.97 178.21,24.35L178.21,33C178.213,33.328 178.014,33.627 177.71,33.75C176.07,34.4 170.45,36.55 165.51,37.77C158.469,39.468 151.252,40.327 144.01,40.33C136.38,40.33 129.05,39.35 122.51,37.77C118.365,36.679 114.291,35.336 110.31,33.75C109.998,33.633 109.79,33.333 109.79,33L109.79,24.35ZM82.73,132.03C82.73,129.46 82.87,127.07 83.15,124.88C83.21,124.04 83.35,123.24 83.49,122.45C83.87,120.05 84.46,117.69 85.26,115.39C85.49,114.73 85.72,114.13 85.96,113.52C85.96,113.47 86.01,113.38 86.06,113.34C86.33,112.64 86.66,111.94 86.99,111.27C87.614,109.86 88.349,108.502 89.19,107.21C90.034,105.888 90.922,104.594 91.85,103.33C92.79,102.03 93.82,100.76 94.84,99.45L98.2,95.53L99.47,94.03C100.87,92.44 102.27,90.81 103.67,89.17C104.33,88.37 105.03,87.63 105.69,86.88C105.87,86.65 106.05,86.41 106.29,86.18C107.09,85.28 107.89,84.4 108.67,83.61C108.67,83.56 108.67,83.56 108.72,83.51C115.17,76.65 122.51,68.79 122.51,53.79L122.51,47.34C129.566,48.925 136.778,49.71 144.01,49.68C151.02,49.68 157.81,48.97 164.11,47.62C164.58,47.52 165.05,47.46 165.51,47.36L165.51,53.79C165.51,68.8 172.85,76.65 179.29,83.52C179.34,83.57 179.34,83.57 179.34,83.62C180.14,84.41 180.94,85.3 181.73,86.18C181.96,86.42 182.15,86.65 182.33,86.88C182.99,87.63 183.69,88.38 184.34,89.18C185.74,90.81 187.15,92.45 188.54,94.04L189.81,95.54C190.98,96.89 192.11,98.19 193.18,99.46C194.21,100.76 195.24,102.03 196.17,103.34C197.1,104.603 197.987,105.897 198.83,107.22C199.67,108.51 200.41,109.87 201.03,111.28C201.37,111.95 201.68,112.64 201.96,113.34C202.01,113.39 202.06,113.48 202.06,113.52C202.29,114.14 202.53,114.74 202.76,115.4C203.56,117.7 204.15,120.06 204.54,122.46C204.68,123.26 204.81,124.04 204.86,124.88C205.14,127.08 205.28,129.47 205.28,132.03L205.28,239.5C205.28,242.2 205.14,244.64 204.86,246.83C204.649,248.177 204.399,249.518 204.11,250.85C201.82,260.29 196.68,264.5 191.73,266.37C190.89,266.7 190,266.93 189.06,267.17C188.55,267.25 188.08,267.35 187.56,267.44C187.34,267.49 187.06,267.54 186.82,267.54L185.89,267.68C185.09,267.72 184.35,267.82 183.59,267.82C182.94,267.87 182.34,267.87 181.68,267.87L106.34,267.87C105.69,267.87 105.07,267.87 104.42,267.82C103.67,267.82 102.92,267.72 102.12,267.68L101.2,267.54C100.96,267.54 100.68,267.49 100.45,267.44L98.95,267.16C98.05,266.96 97.15,266.69 96.29,266.36C91.33,264.5 86.19,260.29 83.9,250.85C83.615,249.517 83.368,248.177 83.16,246.83C82.88,244.63 82.73,242.2 82.73,239.5L82.73,132.03Z" style="fill-rule:nonzero;"/>
            <path d="M188.9,209.3C189.52,209.3 189.83,209.6 189.83,210.17L189.83,220.96C189.83,221.58 189.46,221.83 188.77,221.83C186.71,221.83 183.65,221.77 179.53,221.64C176.46,221.49 173.38,221.41 170.3,221.39C169.75,221.39 169.43,221.46 169.37,221.64C169.49,221.9 172.61,223.27 178.79,225.77C182.41,227.2 185.96,228.69 189.58,230.13C190.08,230.31 190.33,230.57 190.39,230.88C190.45,231.01 190.45,231.38 190.45,232.12C190.45,233.18 190.26,233.82 189.83,234C186.638,235.546 183.393,236.981 180.1,238.3C175.54,240.24 172.3,241.67 170.3,242.6C170.18,242.67 170.12,242.73 169.99,242.92C170.18,243.04 170.43,243.11 170.86,243.11C172.86,243.11 175.86,243.04 179.78,242.98C183.78,242.85 186.78,242.79 188.78,242.79C189.46,242.79 189.83,243.11 189.83,243.67L189.83,253.84C189.83,254.21 189.77,254.46 189.64,254.58C189.42,254.68 189.19,254.72 188.96,254.71C186.71,254.71 183.4,254.58 178.98,254.4C174.55,254.2 171.18,254.09 168.99,254.09C166.62,254.09 162.19,254.15 155.77,254.39C154.08,254.39 151.53,254.46 148.22,254.65L147.72,254.7C147.28,254.7 147.1,254.27 147.1,253.4C147.1,252.28 147.03,250.59 146.97,248.4C146.91,246.16 146.91,244.48 146.91,243.36C146.91,243.11 147.28,242.79 148.16,242.42L167.68,233.5C168.99,232.88 169.68,232.38 169.68,231.94C169.68,231.69 168.93,231.25 167.38,230.5C163.13,228.44 156.7,225.39 148.1,221.4C147.28,221.02 146.9,220.65 146.9,220.28C146.9,219.65 146.9,218.78 146.97,217.59C147.03,216.41 147.1,215.53 147.1,214.91C147.1,214.41 147.03,213.6 146.9,212.61C146.85,211.54 146.79,210.73 146.79,210.23C146.79,209.61 147.03,209.36 147.53,209.36C149.91,209.36 153.53,209.42 158.26,209.61C163.01,209.73 166.62,209.86 168.99,209.86C171.18,209.86 174.55,209.73 178.98,209.54C183.4,209.42 186.71,209.29 188.89,209.29L188.9,209.3ZM167.31,191.28C170.911,191.258 174.511,191.191 178.11,191.08C182.97,190.96 186.52,190.9 188.96,190.9C189.33,190.9 189.58,190.96 189.71,191.15L189.83,191.96C190.02,193.26 190.08,195.08 190.08,197.26C190.08,200.26 190.02,202.13 189.83,202.94C189.71,203.5 189.4,203.82 188.89,203.82C189.21,203.82 187.39,203.75 183.53,203.56C175.29,203.19 169.93,203 167.31,203C165.12,203 161.88,203.06 157.51,203.2C153.21,203.38 149.97,203.44 147.78,203.44C147.34,203.44 147.1,203.19 147.1,202.69C147.1,202.07 147.1,201.13 147.15,199.89C147.22,198.58 147.28,197.63 147.28,197.01C147.28,196.39 147.23,195.45 147.16,194.21C147.1,193.01 147.1,192.09 147.1,191.46C147.1,190.84 147.34,190.58 147.78,190.58C149.97,190.58 153.21,190.65 157.52,190.9C161.88,191.15 165.12,191.28 167.32,191.28L167.31,191.28ZM190.33,157.03C190.33,158.78 190.33,161.09 190.2,163.9C190.15,167.52 190.08,169.82 190.08,170.7L189.95,179.8C189.95,180.74 189.95,182.05 189.83,183.74C189.71,184.36 189.4,184.61 188.89,184.61C186.65,184.61 183.34,184.61 178.91,184.54C172.07,184.35 165.23,184.37 158.39,184.61C153.71,184.79 150.15,184.85 147.84,184.85C147.34,184.85 147.16,184.55 147.16,183.92C147.16,183.3 147.16,182.42 147.22,181.17C147.28,179.99 147.34,179.11 147.34,178.5C147.34,177.8 147.29,176.8 147.22,175.5C147.16,174.2 147.1,173.19 147.1,172.5C147.1,172.25 147.34,172.07 147.72,172.13L148.1,172.13C151.9,172.38 157.64,172.63 165.31,172.94L173.36,173C175.98,173 177.86,173 179.04,172.94C179.29,172.94 179.54,172.94 179.78,172.88C180.04,172.88 180.16,172.69 180.22,172.44L180.22,171.63C180.22,169.82 180.16,167.08 179.97,163.46C179.72,159.78 179.67,157.04 179.67,155.22C179.67,154.66 179.91,154.42 180.35,154.42C183.85,154.42 186.83,154.66 189.33,155.16C189.89,155.29 190.2,155.48 190.26,155.79C190.33,155.91 190.33,156.34 190.33,157.04L190.33,157.03ZM188.15,113.43C189.02,113.43 189.58,113.81 189.83,114.55C190.02,115.18 190.14,116.8 190.14,119.36C190.14,121.86 190.02,123.73 189.83,124.85C189.71,125.41 189.64,125.79 189.52,125.91C189.28,126.2 188.98,126.43 188.64,126.6C185.9,128.1 183.22,129.53 180.48,131.03C176.1,133.4 173.68,134.9 173.24,135.33C174.05,137.51 174.61,138.63 174.92,138.63C176.48,138.63 178.79,138.58 181.85,138.45C184.9,138.33 187.21,138.26 188.77,138.26C189.4,138.26 189.77,138.52 189.83,139.07C190.02,140.13 190.08,142.07 190.08,144.81C190.08,147.43 190.02,149.18 189.83,150.05C189.71,150.62 189.4,150.93 188.89,150.93C186.71,150.93 183.4,150.8 178.98,150.62C174.55,150.42 171.18,150.3 168.99,150.3C166.62,150.3 163.13,150.36 158.39,150.62C153.65,150.8 150.09,150.92 147.79,150.92C147.34,150.92 147.09,150.68 147.09,150.24C147.09,149.62 147.09,148.68 147.15,147.44C147.22,146.12 147.28,145.19 147.28,144.56C147.28,143.94 147.23,142.94 147.16,141.69C147.1,140.39 147.1,139.45 147.1,138.83C147.1,138.45 147.28,138.26 147.66,138.26C149.16,138.26 151.4,138.39 154.46,138.52C157.52,138.7 159.76,138.76 161.26,138.76C163.01,138.76 163.88,138.26 163.88,137.33C163.88,134.9 163.19,133.03 161.88,131.65C160.95,130.71 159.14,129.65 156.58,128.65C153.636,127.681 150.721,126.624 147.84,125.48C147.34,125.22 147.1,124.78 147.1,124.1C147.1,123.54 147.1,122.79 147.15,121.73C147.22,120.61 147.28,119.86 147.28,119.3C147.28,118.74 147.28,117.92 147.23,116.87C147.16,115.81 147.16,114.99 147.16,114.43C147.16,113.93 147.41,113.69 147.84,113.69C148.53,113.69 150.16,114.12 152.77,114.99C160.45,117.49 165.25,120.42 167.12,123.66C167.5,124.35 167.81,124.66 168.06,124.66L177.23,119.05C183.34,115.31 186.96,113.44 188.14,113.44L188.14,113.43L188.15,113.43Z" style="fill-rule:nonzero;"/>
            <g>
                <path d="M237.06,271.79C237.097,273.663 236.358,275.469 235.02,276.78C233.747,278.1 231.984,278.839 230.15,278.82C228.303,278.844 226.53,278.08 225.28,276.72C223.984,275.41 223.27,273.632 223.3,271.79C223.3,269.87 223.96,268.24 225.28,266.86C226.537,265.517 228.311,264.774 230.15,264.82C232.07,264.82 233.7,265.48 235.02,266.86C236.356,268.147 237.095,269.935 237.06,271.79ZM255.69,262.29C255.69,267.16 255.33,270.95 254.49,273.65C253.04,278.4 250.69,282.13 247.51,284.83C247.15,285.13 246.85,285.32 246.61,285.32C246.37,285.32 246.19,285.2 245.95,284.95C244.929,283.714 243.865,282.513 242.76,281.35C241.92,280.63 240.66,279.55 239.03,278.05C238.79,277.8 238.67,277.62 238.67,277.44C238.67,277.26 238.79,277.08 239.03,276.9C239.984,276.07 240.908,275.206 241.8,274.31C242.52,273.35 243.12,272.21 243.54,270.83C244.08,268.9 244.38,265.78 244.38,261.45C244.38,251.41 244.02,243.59 243.3,238.06C243.24,237.88 243.24,237.7 243.24,237.64C243.24,237.28 243.54,237.1 244.2,237.1C244.8,237.1 245.77,237.1 246.97,237.16C248.17,237.22 249.13,237.28 249.74,237.28C250.34,237.28 251.18,237.22 252.38,237.16C253.52,237.1 254.36,237.1 254.97,237.1C255.51,237.1 255.81,237.34 255.81,237.88C255.81,240.58 255.81,244.62 255.75,250.03C255.75,255.5 255.69,259.58 255.69,262.29ZM281.6,264.7C281.6,268.66 279.91,272.09 276.54,274.91C273.507,277.503 269.793,279.173 265.84,279.72L265.48,279.72C265,279.72 264.04,278.4 262.48,275.64C260.91,272.87 260.13,271.19 260.13,270.59C260.13,270.35 260.31,270.23 260.61,270.17C263.44,269.5 265.31,268.97 266.26,268.54C268.25,267.52 269.26,266.02 269.26,264.04C269.26,262.77 268.61,261.33 267.28,259.77C265.991,258.328 264.75,256.844 263.56,255.32C262.2,253.338 261.484,250.984 261.51,248.58C261.51,244.98 263.14,242.03 266.44,239.63C269.424,237.601 272.842,236.3 276.42,235.83C276.66,235.83 276.78,235.78 276.9,235.78C277.2,235.78 277.44,236.02 277.63,236.5C278.11,237.94 279.31,240.53 281.17,244.25C281.23,244.37 281.29,244.5 281.29,244.55C281.29,244.85 281.11,245.04 280.75,245.04C280.57,245.04 280.33,245.04 279.97,244.98C279.55,244.92 279.31,244.86 279.07,244.86C277.69,244.86 276.42,245.22 275.4,245.82C274.14,246.6 273.48,247.62 273.48,248.94C273.48,250.14 274.2,251.59 275.58,253.34C278.11,256.52 279.37,258.14 279.48,258.26C280.786,260.156 281.518,262.389 281.59,264.69L281.6,264.7Z" style="fill-rule:nonzero;"/>
            </g>
        </g>
    </g>
    <path id="path3018" d="M0,0L0,28L31.999,28L32,0L0,0ZM22,2L22,4L10,4L10,2L22,2ZM8,2L8,4L6,4L6,2L8,2ZM2,2L4,2L4,4L2,4L2,2ZM29.999,26L2,26L2,6L29.999,6L29.999,26ZM30,4L26,4L26,2L30,2L30,4ZM28,10L28,12L18,12L18,10L28,10ZM28,14L28,16L18,16L18,14L28,14ZM24,18L24,20L18,20L18,18L24,18Z" style="fill-rule:nonzero;"/>
</svg>
