<svg xmlns="http://www.w3.org/2000/svg" fill-rule="evenodd" stroke-linejoin="round" stroke-miterlimit="2" clip-rule="evenodd" viewBox="0 0 2000 2000">
  <defs/>
  <path fill="#6c0000" d="M578.8 273.5l368.55 368.55 421.2-421.2 157.94 157.95-947.69 947.7L52.31 800l526.5-526.5zm0 737.1L789.4 800 578.8 589.4 368.2 800l210.6 210.6z"/>
  <path fill="#8f0000" d="M1315.9 800l-105.3 105.3 315.9 315.9-157.95 157.94L894.7 905.3l579.14-579.14L1947.7 800l-315.9 315.9L1315.9 800zm210.6-210.6l-105.3 105.3 157.94 157.95 105.3-105.3L1526.5 589.4z"/>
  <path fill="#bd0101" d="M526.16 1273.84L684.1 1115.9l315.9 315.9 315.9-315.9 157.94 157.94L1000 1747.7l-473.84-473.85z"/>
</svg>
