<svg xmlns="http://www.w3.org/2000/svg" fill-rule="evenodd" stroke-linecap="round" stroke-linejoin="round" stroke-miterlimit="1.5" clip-rule="evenodd" viewBox="0 0 32 28">
  <defs/>
  <path fill="none" d="M0 0h32v32H0z"/>
  <path fill="#fff" d="M.04 0h31.8v27.94H.04z"/>
  <path fill="#fff" stroke="#000" stroke-width=".05878" d="M6.3 8.3v1.29l.46.59.1.82-2.12 2.93.03 8.85 1 .78 5.99-.09 1-1.29-.12-8.33L10.47 11l.09-1.16.51-.66-.1-.96-2.34-.32-2.33.4"/>
  <path fill-rule="nonzero" d="M7.57 13.6c.23-.47.05-.7-.4-.49-.46.2-1.02.76-1.25 1.24-.22.48-.04.7.41.5.46-.21 1.01-.77 1.24-1.25z"/>
  <path fill-rule="nonzero" d="M6.42 24.12h4.43c1.55 0 2.48-1.03 2.48-2.76v-6.32c0-1.51-.68-2.3-1.18-2.87l-.1-.11a7.23 7.23 0 01-.2-.24l-.34-.38c-.33-.35-.52-.55-.52-1v-.16a1.25 1.25 0 00.52-.49c.04-.05.07-.12.1-.18l.05-.15a1.85 1.85 0 00.08-.46v-.56a.78.78 0 00-.52-.76h-.01l-.06-.02a10.97 10.97 0 00-5.04 0l-.05.02a.79.79 0 00-.54.76v.58a1.91 1.91 0 00.14.6l.08.16.09.12c.11.16.26.3.44.38v.16c0 .45-.19.65-.52 1l-.33.38-.2.23-.1.12a3.97 3.97 0 00-1.19 2.87v6.32c0 1.73.93 2.76 2.49 2.76zm.2-15.4c0-.03.02-.05.04-.06a9.68 9.68 0 013.94 0c.03 0 .04.03.04.05v.5c0 .03-.01.05-.03.05-.1.04-.42.17-.71.24a5.4 5.4 0 01-3.25-.24.05.05 0 01-.03-.04v-.5zm-1.59 6.32a3.33 3.33 0 01.2-1.1l.05-.12.13-.24.16-.23.17-.22.2-.24.07-.08.25-.29.12-.13.03-.04a4 4 0 01.14-.16c.39-.4.82-.87.82-1.75v-.38a5.66 5.66 0 002.44.02l.09-.02v.38c0 .88.43 1.35.8 1.75a3.5 3.5 0 01.18.2l.12.13.25.29.07.09.2.23.18.22a4.1 4.1 0 01.34.6l.05.11a2.47 2.47 0 01.12.56l.02.42v6.32a3.42 3.42 0 01-.07.66c-.13.56-.43.8-.72.92l-.16.04-.09.02h-.04l-.06.01-.13.01H6.17L6.12 23 6.07 23l-.09-.02c-.05 0-.1-.02-.15-.04-.3-.11-.6-.36-.73-.92a4.18 4.18 0 01-.07-.66v-6.32z"/>
  <path fill-rule="nonzero" d="M11.27 19.58c.04 0 .05.02.05.05v.64c0 .03-.02.05-.06.05a18.57 18.57 0 01-1.08-.03c-.04 0-.05 0-.06.02 0 .01.2.1.56.24l.63.26c.03 0 .04.02.05.04v.07c0 .07-.01.1-.04.11-.18.1-.37.18-.57.26a20.83 20.83 0 00-.6.27.1.1 0 00.06.01h.52c.24-.02.42-.02.53-.02.04 0 .06.02.06.05v.64l-.05.01a16.9 16.9 0 01-1.17-.04 21.92 21.92 0 00-1.22.04h-.03c-.03 0-.04-.02-.04-.08v-.29-.3c0-.01.01-.03.07-.05l1.14-.53c.08-.03.12-.06.12-.09a77.72 77.72 0 00-1.27-.62c-.05-.02-.07-.04-.07-.06v-.16l.01-.16v-.13l-.01-.14c0-.04 0-.05.04-.05l.63.01.63.02.59-.02.58-.02zM10 18.52a25.68 25.68 0 001.27-.02c.03 0 .04 0 .05.02v.04c.02.08.02.19.02.31 0 .18 0 .3-.02.34 0 .03-.02.05-.05.05l-.32-.02a27.36 27.36 0 00-2.14-.05v-.16l.01-.17v-.16-.17c0-.03 0-.05.03-.05.13 0 .32 0 .58.02.25.02.44.02.57.02zm1.35-2.01v.4l-.01.4v.54c0 .05 0 .13-.02.23 0 .04-.02.05-.05.05h-.59a19.2 19.2 0 00-1.82.02c-.03 0-.04-.02-.04-.06v-.16-.16-.17-.18c0-.02 0-.03.03-.02h.02l1.01.04H10.73c.02 0 .03-.01.03-.02v-.05a9.46 9.46 0 00-.03-.97c0-.03.01-.04.04-.04.2 0 .38.01.53.04.03 0 .05.02.05.04v.07zm-.12-2.56c.05 0 .08.02.1.06l.01.29c0 .14 0 .25-.02.32l-.01.06a.16.16 0 01-.05.04l-.48.26-.43.25c.05.13.08.2.1.2a10.07 10.07 0 00.81-.02c.04 0 .06.01.06.04.02.07.02.18.02.34 0 .16 0 .26-.02.31 0 .03-.02.05-.05.05a17.03 17.03 0 01-1.17-.04c-.14 0-.34 0-.62.02l-.63.02c-.02 0-.04-.01-.04-.04v-.16l.01-.17v-.17-.17c0-.02 0-.03.03-.03l.4.01.4.02c.1 0 .15-.03.15-.09a.46.46 0 00-.12-.33.95.95 0 00-.3-.18 9.1 9.1 0 01-.52-.18c-.03-.02-.05-.05-.05-.09v-.14l.01-.14v-.14V14c0-.03.01-.05.04-.05.04 0 .13.03.29.08.45.15.73.32.84.5.02.05.04.07.06.07l.53-.33c.36-.22.58-.33.65-.33zM14.1 23.26a.4.4 0 01-.12.29.4.4 0 01-.29.12.38.38 0 01-.28-.12.4.4 0 01-.12-.3c0-.1.04-.2.12-.28a.38.38 0 01.28-.12c.12 0 .21.03.3.12a.4.4 0 01.11.29zm1.1-.56c0 .28-.02.5-.07.66-.09.28-.23.5-.41.66l-.06.03-.04-.02a4.07 4.07 0 00-.18-.21c-.05-.05-.13-.1-.22-.2-.02-.01-.02-.02-.02-.03a3.11 3.11 0 00.18-.18.65.65 0 00.1-.21c.03-.11.05-.3.05-.55 0-.6-.02-1.05-.06-1.38v-.02c0-.02.01-.03.05-.03h.63c.04 0 .05.01.05.04v1.44zm1.52.14c0 .23-.1.43-.3.6-.18.15-.4.25-.63.28h-.02c-.03 0-.08-.08-.17-.24-.1-.16-.14-.26-.14-.3 0 0 0-.02.03-.02.16-.04.27-.07.33-.1.11-.06.17-.14.17-.26 0-.07-.03-.16-.11-.25a5.13 5.13 0 01-.22-.26.69.69 0 01-.12-.4c0-.21.1-.38.29-.52.17-.12.37-.2.58-.23h.03c.02 0 .03.01.05.04a4.37 4.37 0 00.21.47c0 .02-.01.03-.03.03h-.1a.43.43 0 00-.22.05c-.07.04-.1.1-.1.18 0 .07.03.16.12.26l.22.29a.7.7 0 01.13.38z"/>
  <path fill-rule="nonzero" d="M0 0v28h32V0H0zm22 2v2H10V2h12zM8 2v2H6V2h2zM2 2h2v2H2V2zm28 24H2V6h28v20zm0-22h-4V2h4v2zm-2 6v2H18v-2h10zm0 4v2H18v-2h10zm-4 4v2h-6v-2h6z"/>
</svg>
