<?xml version="1.0" encoding="UTF-8" standalone="no"?>
<!DOCTYPE svg PUBLIC "-//W3C//DTD SVG 1.1//EN" "http://www.w3.org/Graphics/SVG/1.1/DTD/svg11.dtd">
<svg width="100%" height="100%" viewBox="0 0 64 58" version="1.1" xmlns="http://www.w3.org/2000/svg" xmlns:xlink="http://www.w3.org/1999/xlink" xml:space="preserve" xmlns:serif="http://www.serif.com/" style="fill-rule:evenodd;clip-rule:evenodd;stroke-linejoin:round;stroke-miterlimit:2;">
    <g id="Path_6526" transform="matrix(1,0,0,1,-74.94,-72.328)">
        <path d="M124.252,72.328L91.458,72.328L91.458,72.7C89.277,72.912 88.048,73.068 87.358,73.755C86.782,74.395 86.57,75.437 86.515,77.169C86.505,77.529 86.499,77.911 86.499,78.34L86.499,80.084C86.426,82.069 86.462,84.365 86.462,85.655L86.4,93.53C91.481,89.564 94.641,88.51 97.43,88.51C101.645,88.51 103.13,91.237 103.13,95.824L103.13,107.846C103.13,112.494 103.376,113.176 107.963,113.484C108.024,113.484 108.086,113.859 108.024,113.859C106.724,113.672 103.068,113.484 101.333,113.484C99.302,113.462 97.272,113.588 95.259,113.859C95.136,113.859 95.259,113.484 95.321,113.484C98.729,113.177 99.472,112.744 99.472,107.846L99.472,98.546C99.472,92.908 98.047,90.551 94.703,90.551C92.72,90.551 91.11,91.111 86.403,94.024L86.403,107.843C86.403,112.429 86.959,113.173 90.49,113.481C90.553,113.481 90.677,113.856 90.553,113.856C88.641,113.624 86.717,113.498 84.791,113.481C82.452,113.464 80.115,113.59 77.791,113.856C77.666,113.856 77.791,113.481 77.791,113.481C82.254,113.049 82.747,112.863 82.747,107.843L82.8,76.732C82.864,75.677 82.578,74.63 81.986,73.754C81.296,73.068 80.065,72.911 77.886,72.642L77.886,72.328L74.789,72.288L74.94,115.653C74.94,123.535 81.426,130.022 89.308,130.023L122.133,130.023L122.133,129.715C124.312,129.504 125.542,129.346 126.233,128.659C126.806,128.021 127.02,126.978 127.074,125.248C127.084,124.886 127.09,124.502 127.09,124.075L127.09,122.332C127.162,120.347 127.128,118.052 127.128,116.761L127.19,108.884C122.109,112.851 118.947,113.904 116.159,113.904C111.944,113.904 110.459,111.177 110.459,106.59L110.459,94.563C110.459,89.915 110.214,89.233 105.627,88.924C105.565,88.924 105.503,88.551 105.565,88.551C106.865,88.736 110.523,88.924 112.26,88.924C114.29,88.946 116.32,88.821 118.332,88.551C118.457,88.551 118.332,88.924 118.27,88.924C114.863,89.234 114.12,89.666 114.12,94.563L114.12,103.863C114.12,109.501 115.544,111.857 118.889,111.857C120.874,111.857 122.489,111.299 127.194,108.387L127.194,94.563C127.194,89.977 126.636,89.233 123.104,88.924C123.042,88.924 122.917,88.551 123.042,88.551C124.955,88.782 126.879,88.906 128.805,88.924C131.144,88.941 133.481,88.817 135.805,88.551C135.929,88.551 135.805,88.924 135.805,88.924C131.343,89.357 130.849,89.544 130.849,94.563L130.79,125.679C130.727,126.733 131.014,127.779 131.605,128.654C132.297,129.341 133.526,129.498 135.705,129.765L135.705,130.017L138.618,130.017L138.618,86.7C138.618,86.699 138.618,86.697 138.618,86.696C138.618,78.815 132.133,72.329 124.252,72.328Z" style="fill:rgb(129,14,23);fill-rule:nonzero;"/>
    </g>
</svg>
