<?xml version="1.0" encoding="UTF-8" standalone="no"?>
<!DOCTYPE svg PUBLIC "-//W3C//DTD SVG 1.1//EN" "http://www.w3.org/Graphics/SVG/1.1/DTD/svg11.dtd">
<svg width="100%" height="100%" viewBox="0 0 288 288" version="1.1" xmlns="http://www.w3.org/2000/svg" xmlns:xlink="http://www.w3.org/1999/xlink" xml:space="preserve" xmlns:serif="http://www.serif.com/" style="fill-rule:evenodd;clip-rule:evenodd;stroke-linejoin:round;stroke-miterlimit:2;">
    <g transform="matrix(1,0,0,1,-11.2593,18.1728)">
        <g transform="matrix(72,0,0,72,36.5679,154.42)">
            <path d="M0.622,-0.211C0.622,-0.151 0.603,-0.101 0.566,-0.062C0.523,-0.017 0.448,0.006 0.341,0.006C0.333,0.006 0.321,0.006 0.306,0.005C0.291,0.005 0.279,0.005 0.271,0.005C0.151,0.005 0.08,0.003 0.057,-0.002C0.048,-0.004 0.043,-0.009 0.043,-0.017C0.043,-0.052 0.045,-0.105 0.049,-0.175C0.053,-0.246 0.055,-0.299 0.055,-0.334C0.055,-0.372 0.053,-0.443 0.049,-0.547C0.048,-0.574 0.047,-0.614 0.044,-0.667L0.043,-0.674C0.043,-0.68 0.048,-0.684 0.059,-0.685C0.069,-0.686 0.107,-0.687 0.172,-0.687C0.276,-0.687 0.336,-0.687 0.354,-0.686C0.434,-0.683 0.493,-0.67 0.531,-0.647C0.582,-0.616 0.607,-0.564 0.607,-0.49C0.607,-0.471 0.601,-0.451 0.589,-0.429C0.581,-0.414 0.57,-0.399 0.556,-0.383C0.544,-0.37 0.538,-0.364 0.538,-0.365C0.538,-0.362 0.542,-0.359 0.551,-0.354C0.574,-0.341 0.591,-0.32 0.604,-0.292C0.616,-0.267 0.622,-0.24 0.622,-0.211ZM0.412,-0.486C0.412,-0.514 0.398,-0.532 0.37,-0.542C0.354,-0.546 0.329,-0.549 0.293,-0.549C0.258,-0.549 0.24,-0.546 0.24,-0.541C0.24,-0.535 0.24,-0.525 0.239,-0.513C0.237,-0.5 0.237,-0.491 0.237,-0.485C0.237,-0.452 0.24,-0.434 0.245,-0.43C0.249,-0.427 0.269,-0.426 0.307,-0.426C0.377,-0.426 0.412,-0.446 0.412,-0.486ZM0.427,-0.213C0.427,-0.242 0.415,-0.262 0.39,-0.272C0.375,-0.279 0.349,-0.282 0.314,-0.282C0.272,-0.282 0.249,-0.281 0.246,-0.278C0.242,-0.274 0.24,-0.255 0.24,-0.218C0.24,-0.179 0.242,-0.158 0.247,-0.154C0.251,-0.15 0.274,-0.148 0.317,-0.148C0.352,-0.148 0.377,-0.151 0.391,-0.156C0.415,-0.166 0.427,-0.185 0.427,-0.213Z" style="fill-rule:nonzero;"/>
        </g>
        <g transform="matrix(72,0,0,72,82.5874,154.42)">
            <path d="M0.494,0.008C0.466,0.008 0.429,0.008 0.384,0.006C0.326,0.005 0.289,0.004 0.275,0.004L0.129,0.002C0.114,0.002 0.093,0.002 0.066,-0C0.056,-0.002 0.052,-0.007 0.052,-0.015C0.052,-0.051 0.052,-0.104 0.053,-0.175C0.055,-0.245 0.055,-0.299 0.055,-0.334C0.055,-0.372 0.054,-0.428 0.052,-0.504C0.049,-0.579 0.048,-0.636 0.048,-0.673C0.048,-0.681 0.053,-0.684 0.063,-0.684C0.073,-0.684 0.087,-0.684 0.107,-0.683C0.126,-0.682 0.14,-0.681 0.15,-0.681C0.161,-0.681 0.177,-0.682 0.198,-0.683C0.219,-0.684 0.235,-0.685 0.246,-0.685C0.25,-0.685 0.253,-0.681 0.252,-0.675L0.252,-0.669C0.248,-0.608 0.244,-0.516 0.239,-0.393L0.238,-0.264C0.238,-0.222 0.238,-0.192 0.239,-0.173C0.239,-0.169 0.239,-0.165 0.24,-0.161C0.24,-0.157 0.243,-0.155 0.247,-0.154L0.26,-0.154C0.289,-0.154 0.333,-0.155 0.391,-0.158C0.45,-0.162 0.494,-0.163 0.523,-0.163C0.532,-0.163 0.536,-0.159 0.536,-0.152C0.536,-0.096 0.532,-0.048 0.524,-0.008C0.522,0.001 0.519,0.006 0.514,0.007C0.512,0.008 0.505,0.008 0.494,0.008Z" style="fill-rule:nonzero;"/>
        </g>
        <g transform="matrix(72,0,0,72,121.962,154.42)">
            <path d="M0.689,-0.012C0.689,-0.006 0.685,-0.002 0.677,-0C0.667,0.003 0.637,0.004 0.586,0.004C0.539,0.004 0.509,0.003 0.496,-0C0.485,-0.002 0.478,-0.01 0.475,-0.022C0.464,-0.069 0.455,-0.094 0.449,-0.097C0.444,-0.099 0.4,-0.101 0.318,-0.101C0.263,-0.101 0.234,-0.099 0.23,-0.096C0.224,-0.091 0.218,-0.074 0.211,-0.044C0.205,-0.017 0.198,-0.002 0.189,-0C0.178,0.003 0.141,0.004 0.078,0.004C0.028,0.004 0.003,-0.001 0.003,-0.01C0.003,-0.019 0.04,-0.123 0.113,-0.322C0.193,-0.538 0.236,-0.657 0.243,-0.678C0.247,-0.691 0.252,-0.697 0.257,-0.697C0.266,-0.697 0.279,-0.696 0.298,-0.694C0.316,-0.693 0.33,-0.692 0.339,-0.692C0.348,-0.692 0.361,-0.692 0.378,-0.694C0.395,-0.695 0.408,-0.695 0.416,-0.695C0.422,-0.695 0.428,-0.69 0.433,-0.679C0.449,-0.645 0.496,-0.528 0.573,-0.328C0.65,-0.126 0.689,-0.021 0.689,-0.012ZM0.343,-0.457C0.336,-0.443 0.324,-0.412 0.308,-0.364C0.291,-0.313 0.282,-0.283 0.282,-0.274C0.282,-0.269 0.292,-0.265 0.311,-0.265C0.321,-0.264 0.338,-0.264 0.361,-0.264C0.382,-0.264 0.394,-0.266 0.396,-0.271C0.397,-0.273 0.397,-0.275 0.397,-0.278C0.397,-0.289 0.39,-0.319 0.375,-0.367C0.36,-0.414 0.35,-0.444 0.343,-0.457Z" style="fill-rule:nonzero;"/>
        </g>
        <g transform="matrix(72,0,0,72,171.919,154.42)">
            <path d="M0.698,-0.67C0.698,-0.633 0.697,-0.577 0.694,-0.503C0.691,-0.428 0.689,-0.372 0.689,-0.335L0.689,-0.013C0.689,-0.004 0.684,-0 0.675,-0C0.667,-0 0.655,0 0.639,0.001C0.624,0.002 0.612,0.002 0.604,0.002C0.596,0.002 0.583,0.001 0.566,-0C0.549,-0.001 0.536,-0.002 0.528,-0.002C0.522,-0.002 0.515,-0.007 0.507,-0.018C0.483,-0.05 0.431,-0.12 0.349,-0.228C0.326,-0.258 0.292,-0.303 0.246,-0.362C0.245,-0.364 0.242,-0.366 0.239,-0.368C0.236,-0.365 0.235,-0.362 0.235,-0.357C0.235,-0.319 0.236,-0.263 0.238,-0.187C0.24,-0.111 0.241,-0.055 0.241,-0.017C0.241,-0.006 0.237,-0 0.228,-0L0.059,-0C0.05,-0 0.045,-0.005 0.045,-0.015C0.045,-0.05 0.047,-0.103 0.05,-0.174C0.053,-0.245 0.055,-0.299 0.055,-0.334C0.055,-0.371 0.054,-0.427 0.051,-0.502C0.047,-0.576 0.046,-0.632 0.046,-0.669C0.046,-0.677 0.052,-0.68 0.065,-0.68C0.084,-0.68 0.107,-0.681 0.135,-0.684C0.141,-0.685 0.154,-0.687 0.173,-0.69C0.19,-0.693 0.202,-0.695 0.212,-0.695C0.216,-0.695 0.222,-0.689 0.23,-0.678L0.412,-0.429C0.428,-0.406 0.453,-0.373 0.486,-0.33C0.494,-0.32 0.501,-0.315 0.507,-0.315C0.511,-0.315 0.513,-0.328 0.513,-0.353C0.513,-0.387 0.511,-0.439 0.508,-0.507C0.504,-0.576 0.502,-0.628 0.502,-0.662C0.502,-0.674 0.505,-0.68 0.512,-0.68C0.532,-0.68 0.561,-0.681 0.601,-0.683C0.64,-0.684 0.669,-0.685 0.689,-0.685C0.695,-0.685 0.698,-0.68 0.698,-0.67Z" style="fill-rule:nonzero;"/>
        </g>
        <g transform="matrix(72,0,0,72,225.498,154.42)">
            <path d="M0.646,-0.027C0.646,-0.013 0.64,-0.004 0.628,-0C0.618,0.003 0.592,0.005 0.551,0.005C0.511,0.005 0.481,0.003 0.463,-0C0.454,-0.002 0.448,-0.003 0.446,-0.005C0.443,-0.007 0.439,-0.012 0.435,-0.019C0.411,-0.063 0.388,-0.106 0.364,-0.15C0.326,-0.22 0.302,-0.259 0.295,-0.266C0.26,-0.253 0.242,-0.244 0.242,-0.239C0.242,-0.214 0.243,-0.177 0.245,-0.128C0.247,-0.079 0.248,-0.042 0.248,-0.017C0.248,-0.007 0.244,-0.001 0.235,-0C0.218,0.003 0.187,0.004 0.143,0.004C0.101,0.004 0.073,0.003 0.059,-0C0.05,-0.002 0.045,-0.007 0.045,-0.015C0.045,-0.05 0.047,-0.103 0.05,-0.174C0.053,-0.245 0.055,-0.299 0.055,-0.334C0.055,-0.372 0.054,-0.428 0.05,-0.504C0.047,-0.58 0.045,-0.637 0.045,-0.674C0.045,-0.681 0.049,-0.685 0.056,-0.685C0.066,-0.685 0.081,-0.685 0.101,-0.684C0.122,-0.683 0.137,-0.682 0.147,-0.682C0.157,-0.682 0.173,-0.683 0.193,-0.684C0.214,-0.685 0.229,-0.685 0.239,-0.685C0.245,-0.685 0.248,-0.682 0.248,-0.676C0.248,-0.652 0.246,-0.616 0.244,-0.567C0.241,-0.518 0.24,-0.482 0.24,-0.458C0.24,-0.43 0.248,-0.416 0.263,-0.416C0.302,-0.416 0.332,-0.427 0.354,-0.448C0.369,-0.463 0.386,-0.492 0.402,-0.533C0.412,-0.565 0.429,-0.611 0.453,-0.673C0.457,-0.681 0.464,-0.685 0.475,-0.685C0.484,-0.685 0.496,-0.685 0.513,-0.684C0.531,-0.683 0.543,-0.682 0.552,-0.682C0.561,-0.682 0.574,-0.682 0.591,-0.683C0.608,-0.684 0.621,-0.684 0.63,-0.684C0.638,-0.684 0.642,-0.68 0.642,-0.673C0.642,-0.662 0.635,-0.636 0.621,-0.594C0.581,-0.471 0.534,-0.394 0.482,-0.364C0.471,-0.358 0.466,-0.353 0.466,-0.349C0.466,-0.349 0.496,-0.3 0.556,-0.202C0.616,-0.104 0.646,-0.046 0.646,-0.027Z" style="fill-rule:nonzero;"/>
        </g>
    </g>
</svg>
