<?xml version="1.0" encoding="UTF-8" standalone="no"?>
<!DOCTYPE svg PUBLIC "-//W3C//DTD SVG 1.1//EN" "http://www.w3.org/Graphics/SVG/1.1/DTD/svg11.dtd">
<svg width="100%" height="100%" viewBox="0 0 288 288" version="1.1" xmlns="http://www.w3.org/2000/svg" xmlns:xlink="http://www.w3.org/1999/xlink" xml:space="preserve" xmlns:serif="http://www.serif.com/" style="fill-rule:evenodd;clip-rule:evenodd;stroke-linecap:round;stroke-linejoin:round;stroke-miterlimit:1.5;">
    <g transform="matrix(1,0,0,1,4.00142,11.1202)">
        <g id="Layer2">
            <path d="M36.173,229.086L126.444,255.16L244.568,232.642L242.198,101.877L203.481,32.741L198.543,12L85.358,30.173L81.407,55.654L40.123,97.728L36.173,229.086Z" style="fill:white;stroke:black;stroke-width:1px;"/>
        </g>
        <g transform="matrix(0.998262,0,0,0.850197,-257.678,-155.424)">
            <g id="Layer1">
                <path d="M469.621,216.192L469.621,203.524C469.621,197.875 467.106,192.559 462.739,189.001C459.418,186.344 455.243,184.825 450.973,184.825C449.691,184.825 448.411,184.966 447.129,185.251L347.043,206.134C338.457,207.935 332.191,215.622 332.191,224.404L332.191,240.873C332.191,240.873 304.843,269.016 291.67,282.572C287.264,287.105 284.738,293.649 284.738,300.527C284.738,331.39 284.738,419.533 284.738,449.486C284.738,455.472 288.106,460.739 293.002,462.409C315.493,470.082 376.132,490.77 376.132,490.77C376.132,490.77 378.114,491.434 380.078,492.092C382.605,492.939 385.262,493.103 387.85,492.572C390.187,492.093 392.699,491.578 392.699,491.578C392.699,491.578 474.122,474.574 502.435,468.662C507.969,467.506 512,461.857 512,455.257C512,422.939 512,331.32 512,303.675C512,298.451 510.748,293.332 508.387,288.903C498.139,269.681 469.621,216.192 469.621,216.192ZM349.894,235.472L349.894,224.402C349.894,223.925 350.176,223.546 350.652,223.452L450.782,202.522C451.067,202.475 451.352,202.522 451.59,202.76C451.828,202.951 451.922,203.186 451.922,203.522L451.922,214.2L367.32,231.868L349.894,235.472ZM374.473,469.02L304.96,445.443L304.762,417.211L374.52,440.989L374.52,462.399L374.473,469.02ZM374.519,398.793L374.473,419.804L304.762,396.046L304.762,308.206L374.52,331.984L374.52,398.793L374.519,398.793ZM368.523,310.86L326.597,296.563L308.753,290.406L340.402,257.808L356.656,288.328L368.523,310.86ZM353.828,250.352L456.332,228.958L483.95,280.638L491.411,294.692L490.598,294.875L388.805,316.086L361.332,264.528L353.828,250.352ZM491.926,447.692L444.653,457.976L394.594,469.595L394.594,332.98L491.926,312.668L491.926,447.692Z" style="fill-rule:nonzero;"/>
            </g>
        </g>
        <g id="logo_milkjs_skewed.svg" transform="matrix(0.143414,0,0,0.143414,187.138,178.587)">
            <g transform="matrix(1,0,0,1,-254.645,-343.84)">
                <clipPath id="_clip1">
                    <rect x="0" y="0" width="509.29" height="687.68"/>
                </clipPath>
                <g clip-path="url(#_clip1)">
                    <g transform="matrix(1,0,0,1,-487,-54)">
                        <path d="M581,110.74L581,162.06L599.51,182.77L603.29,215L519.29,344.54L520.54,696.71L560.77,721.46L798.77,681.34L838.46,623.86L833.53,292.61L747,192.75L750.65,145.95L771,116.44L767.27,78.64L673.91,80.64L581,110.74" style="fill:white;stroke:black;stroke-width:2.67px;stroke-miterlimit:4;"/>
                    </g>
                    <g transform="matrix(1,0,0,1,-487,-54)">
                        <path d="M631.8,314.17C640.91,293.7 633.65,286.02 615.57,297.04C597.49,308.06 575.45,333.59 566.32,354.04C557.19,374.49 564.47,382.2 582.55,371.17C600.63,360.14 622.68,334.65 631.8,314.17Z" style="fill-rule:nonzero;"/>
                    </g>
                    <g transform="matrix(1,0,0,1,-487,-54)">
                        <path d="M586.31,740.15L762.57,712.83C824.57,703.22 861.49,656.26 861.42,587.34L861.19,335.82C861.13,275.65 833.98,248.68 814.19,228.99L810.19,224.9C807.383,222.233 804.643,219.487 801.97,216.66C797.16,211.72 792.78,207.66 788.62,203.86C775.32,191.8 768,185.05 768,167.1L768,160.55C775.168,155.785 781.273,149.588 785.93,142.35C786.909,141.003 787.782,139.582 788.54,138.1C790.031,135.587 791.348,132.974 792.48,130.28C793.27,128.252 793.938,126.178 794.48,124.07C794.922,123.03 795.257,121.948 795.48,120.84C796.767,115.782 797.531,110.604 797.76,105.39L797.76,82.65C797.76,68.76 789.21,57.94 777.07,55.87L776.42,55.65L774,55.36C740.576,52.703 706.956,53.982 673.83,59.17C639.55,64.567 605.964,73.698 573.67,86.4L571.37,87.54C558.551,93.778 550.296,106.746 550.07,121L550.07,144.28C550.321,148.898 551.025,153.48 552.17,157.96C552.49,159.11 552.82,160.26 553.26,161.41C553.914,163.517 554.681,165.587 555.56,167.61C556.575,169.511 557.711,171.344 558.96,173.1C559.947,174.65 561.043,176.127 562.24,177.52C566.889,183.137 572.986,187.377 579.87,189.78L579.87,196.23C579.87,214.17 572.56,223.17 559.35,239.35C555.18,244.48 550.82,249.85 546.02,256.29C543.39,259.76 540.66,263.35 538.02,266.94L533.87,272.27C513.99,298.12 486.87,333.61 486.95,393.78L487.18,645.28C487.25,714.21 524.26,749.71 586.26,740.11L586.31,740.15ZM593.81,125.15C593.866,124.205 594.475,123.376 595.36,123.04C620.809,113.786 647.1,107.037 673.86,102.89C699.815,98.79 726.126,97.389 752.37,98.71C753.23,98.758 753.911,99.479 753.91,100.34L753.91,120.58C753.888,121.389 753.433,122.127 752.72,122.51C743.463,127.632 733.936,132.248 724.18,136.34C707.985,142.796 691.121,147.424 673.9,150.14C657.268,152.773 640.381,153.397 623.6,152C613.986,150.968 604.452,149.297 595.06,147C594.333,146.85 593.815,146.192 593.84,145.45L593.84,125.2L593.81,125.15ZM530.76,387C530.742,381.358 531.076,375.72 531.76,370.12C531.911,368.17 532.172,366.231 532.54,364.31C533.448,358.485 534.826,352.743 536.66,347.14C537.21,345.52 537.76,344.03 538.3,342.51C538.335,342.341 538.411,342.183 538.52,342.05C539.17,340.3 539.95,338.54 540.71,336.89C542.17,333.336 543.881,329.891 545.83,326.58C547.83,323.21 549.88,319.82 552.06,316.58C554.24,313.34 556.66,309.84 559.06,306.41C561.46,302.98 564.2,299.59 566.92,296L569.92,292C573.2,287.77 576.48,283.43 579.75,279.11C581.28,277 582.92,274.99 584.46,273.01C584.894,272.363 585.365,271.742 585.87,271.15C587.73,268.77 589.59,266.41 591.44,264.26C591.44,264.16 591.44,264.16 591.55,264.03C606.62,245.61 623.78,224.57 623.74,189.45L623.74,174.39C640.54,175.532 657.416,174.753 674.04,172.07C690.052,169.599 705.781,165.556 721,160C722.09,159.61 723.2,159.26 724.27,158.88L724.27,173.88C724.27,209.01 741.49,224.72 756.59,238.47C756.7,238.56 756.7,238.56 756.7,238.66C758.56,240.24 760.43,242.03 762.29,243.82C762.793,244.263 763.267,244.737 763.71,245.24C765.24,246.75 766.89,248.24 768.41,249.88C771.71,253.19 774.99,256.51 778.27,259.72L781.27,262.78C784.01,265.52 786.633,268.187 789.14,270.78C791.56,273.47 793.97,276.05 796.14,278.78C798.31,281.51 800.42,284.12 802.39,286.88C804.371,289.62 806.092,292.54 807.53,295.6C808.33,297.05 809.06,298.55 809.72,300.08C809.836,300.185 809.913,300.326 809.94,300.48C810.49,301.83 811.04,303.15 811.59,304.61C813.475,309.761 814.871,315.078 815.76,320.49C816.129,322.326 816.386,324.183 816.53,326.05C817.216,331.55 817.55,337.088 817.53,342.63L817.76,594.14C817.787,599.932 817.453,605.72 816.76,611.47C816.22,614.95 815.66,618.1 815.01,621.14C809.68,644.08 797.66,655.78 786.07,661.96C784.045,663.02 781.962,663.965 779.83,664.79C778.63,665.18 777.54,665.57 776.34,665.98C775.775,666.191 775.193,666.355 774.6,666.47L772.41,667.14C770.55,667.53 768.8,668.02 767.04,668.3C765.52,668.65 764.1,668.87 762.56,669.11L586.28,696.39C584.75,696.63 583.28,696.85 581.8,696.97C580.04,697.24 578.29,697.29 576.43,697.48L574.25,697.48C573.668,697.53 573.082,697.53 572.5,697.48C571.3,697.48 570.2,697.39 569,697.37C566.902,697.212 564.817,696.912 562.76,696.47C551.16,693.89 539.13,685.91 533.76,664.64C533.11,661.79 532.56,658.81 532.01,655.51C531.315,649.87 530.981,644.192 531.01,638.51L530.76,387Z" style="fill-rule:nonzero;"/>
                    </g>
                    <g transform="matrix(1,0,0,1,-487,-54)">
                        <path d="M779.3,529.39C780.75,529.16 781.48,529.78 781.49,531.09L781.49,556.35C781.49,557.81 780.62,558.53 779.02,558.78C774.2,559.53 767.02,560.48 757.4,561.69C750.213,562.45 743.013,563.37 735.8,564.45C734.5,564.65 733.8,564.91 733.62,565.38C733.92,565.92 741.21,567.99 755.67,571.6C764.14,573.6 772.45,575.86 780.92,577.91C782.1,578.16 782.68,578.65 782.83,579.36C782.999,580.317 783.046,581.291 782.97,582.26C782.97,584.74 782.53,586.26 781.52,586.86C776.273,590.307 768.687,594.843 758.76,600.47C748.1,606.66 740.52,611.18 735.85,614.09C735.545,614.314 735.295,614.605 735.12,614.94C735.773,615.199 736.492,615.241 737.17,615.06C741.84,614.34 748.84,613.11 758.04,611.54C767.373,609.8 774.373,608.567 779.04,607.84C780.64,607.59 781.52,608.19 781.52,609.5L781.52,633.3C781.588,633.939 781.433,634.583 781.08,635.12C780.588,635.406 780.044,635.593 779.48,635.67C774.23,636.48 766.48,637.38 756.13,638.55C745.78,639.72 737.89,640.65 732.77,641.44C727.22,642.3 716.87,644.05 701.83,646.97C697.89,647.58 691.91,648.65 684.17,650.29L683,650.61C682,650.76 681.55,649.81 681.55,647.78C681.55,645.15 681.39,641.22 681.24,636.13C681.09,631.04 681.1,626.97 681.1,624.33C681.1,623.75 681.95,622.88 684,621.69L729.67,593.69C732.73,591.76 734.33,590.34 734.33,589.32C734.33,588.74 732.58,587.98 728.93,586.79C719,583.51 703.93,578.69 683.81,572.46C681.91,571.88 681.03,571.14 681.03,570.27C681.03,568.81 681.03,566.75 681.17,563.97C681.31,561.19 681.47,559.1 681.46,557.64C681.409,555.857 681.262,554.077 681.02,552.31C680.87,549.86 680.73,547.96 680.72,546.8C680.72,545.34 681.3,544.67 682.47,544.49C688.02,543.63 696.47,542.49 707.57,541.18C718.67,539.75 727.13,538.74 732.68,537.88C737.78,537.09 745.68,535.57 756.03,533.53C766.38,531.49 774.19,530.18 779.3,529.39ZM728.76,495C734.45,494.11 742.76,492.68 754.01,490.64C765.26,488.6 773.71,487.14 779.41,486.26C780.27,486.13 780.86,486.19 781.16,486.58C781.16,486.73 781.29,487.29 781.45,488.43C781.921,492.519 782.118,496.635 782.04,500.75C782.04,507.75 781.91,512.16 781.47,514.14C781.355,515.33 780.457,516.307 779.28,516.52C780.01,516.41 775.78,516.91 766.74,517.88C747.46,519.99 734.91,521.5 728.74,522.44C723.62,523.24 716.04,524.56 705.81,526.44C695.75,528.44 688.16,529.75 683.05,530.54C682.05,530.7 681.45,530.22 681.45,529.04C681.45,527.58 681.45,525.39 681.57,522.45C681.69,519.51 681.87,517.14 681.86,515.68C681.85,514.22 681.73,512.05 681.57,509.16C681.41,506.27 681.42,504.23 681.42,502.75C681.42,501.27 681.99,500.62 683.02,500.46C688.13,499.67 695.73,498.65 705.8,497.66C715.87,496.67 723.64,495.83 728.76,495ZM782.54,406.49C782.54,410.59 782.54,415.99 782.26,422.61C782.14,431.1 781.98,436.52 781.99,438.61L781.71,460C781.71,462.19 781.71,465.25 781.43,469.24C781.37,470.455 780.445,471.464 779.24,471.63C773.99,472.44 766.24,473.63 755.88,475.09C739.88,477.09 723.88,479.623 707.88,482.69C696.88,484.81 688.6,486.25 683.2,487.09C682.03,487.27 681.6,486.6 681.6,485.14C681.6,483.68 681.6,481.64 681.74,478.7C681.88,475.76 682.02,473.83 682.02,472.38C682.02,470.77 681.88,468.45 681.72,465.38C681.56,462.31 681.43,460.01 681.43,458.38C681.43,457.79 682,457.27 682.89,457.28L683.76,457.14C692.66,456.35 706.09,454.86 724.05,452.8L742.87,450.02C748.99,449.07 753.38,448.39 756.16,447.83C756.756,447.764 757.341,447.619 757.9,447.4C758.49,447.31 758.79,446.83 758.9,446.22L758.9,444.32C758.9,440.09 758.75,433.68 758.3,425.32C757.7,416.8 757.55,410.39 757.55,406.15C757.55,404.84 758.13,404.15 759.15,404.01C766.084,402.824 773.118,402.322 780.15,402.51C781.47,402.59 782.15,402.92 782.34,403.63C782.526,404.585 782.58,405.561 782.5,406.53L782.54,406.49ZM777.34,305.23C779.34,304.92 780.69,305.6 781.28,307.23C781.72,308.63 782.01,312.39 782.02,318.37C782.099,322.715 781.858,327.06 781.3,331.37C781.275,333.271 780.21,335.012 778.53,335.9C772.11,340.4 765.83,344.72 759.43,349.22C749.21,356.36 743.52,360.75 742.5,361.92C744.41,366.73 745.71,369.16 746.44,369.05C750.087,368.49 755.49,367.507 762.65,366.1C769.81,364.693 775.21,363.713 778.85,363.16C780.31,362.93 781.19,363.38 781.33,364.66C781.78,367.07 781.92,371.58 781.93,378.01C781.93,384.13 781.8,388.25 781.35,390.36C781.244,391.553 780.348,392.535 779.17,392.75C774.06,393.54 766.32,394.45 755.97,395.61C745.62,396.77 737.73,397.71 732.61,398.51C727.06,399.37 718.89,400.77 707.8,403.08C696.7,405.24 688.39,406.82 682.99,407.65C682.863,407.693 682.73,407.715 682.596,407.715C681.921,407.715 681.366,407.16 681.366,406.485C681.366,406.423 681.371,406.361 681.38,406.3C681.38,404.84 681.38,402.65 681.51,399.71C681.66,396.61 681.8,394.4 681.8,392.94C681.8,391.48 681.67,389.17 681.51,386.27C681.35,383.37 681.36,381.04 681.36,379.58C681.355,379.533 681.353,379.485 681.353,379.438C681.353,378.708 681.931,378.098 682.66,378.06C686.18,377.52 691.43,376.99 698.58,376.18C705.73,375.37 710.98,374.83 714.47,374.29C718.58,373.66 720.61,372.17 720.61,369.99C720.61,364.3 718.99,360.17 715.93,357.42C713.74,355.57 709.5,353.75 703.52,352.33C696.627,351.13 689.81,349.71 683.07,348.07C681.9,347.65 681.33,346.72 681.33,345.12C681.33,343.8 681.33,342.04 681.45,339.55C681.6,336.89 681.75,335.12 681.75,333.81C681.75,332.5 681.75,330.59 681.61,328.13C681.47,325.67 681.45,323.78 681.45,322.46C681.442,322.39 681.438,322.32 681.438,322.25C681.438,321.333 682.138,320.556 683.05,320.46C684.65,320.22 688.46,320.64 694.58,321.74C712.58,324.8 723.77,329.93 728.17,336.83C729.05,338.3 729.78,338.93 730.36,338.83L751.81,322.35C766.1,311.35 774.57,305.68 777.33,305.26L777.34,305.23Z" style="fill-rule:nonzero;"/>
                    </g>
                    <g transform="matrix(1,0,0,1,-487,-54)">
                        <path d="M892.13,658.2C891.927,667.528 885.144,675.502 875.97,677.2C871.888,677.992 867.662,676.82 864.57,674.04C861.475,671.317 859.766,667.339 859.92,663.22C859.927,658.709 861.573,654.35 864.55,650.96C867.385,647.421 871.455,645.08 875.94,644.41C880.44,643.72 884.24,644.68 887.33,647.41C890.514,650.066 892.29,654.057 892.13,658.2Z" style="fill-rule:nonzero;"/>
                    </g>
                    <g transform="matrix(1,0,0,1,-487,-54)">
                        <path d="M935.68,629.21C935.68,640.61 934.85,649.61 932.89,656.21C929.52,667.85 924.04,677.42 916.6,684.91C916.041,685.575 915.311,686.076 914.49,686.36C913.908,686.418 913.331,686.195 912.94,685.76C911.39,684.03 908.86,681.6 905.48,678.47C903.48,677.08 900.55,675.01 896.75,672.08C896.19,671.6 895.9,671.23 895.9,670.8C895.973,670.237 896.282,669.732 896.75,669.41C900.12,665.93 902.23,663.49 903.21,662.35C905.019,659.651 906.392,656.685 907.28,653.56C908.54,648.86 909.28,641.43 909.28,631.3C909.28,607.8 908.4,589.64 906.7,576.96C906.597,576.637 906.55,576.299 906.56,575.96C906.56,575.12 907.26,574.59 908.81,574.35C910.36,574.11 912.46,573.78 915.28,573.49C918.1,573.2 920.34,572.98 921.75,572.77C923.16,572.56 925.12,572.1 927.93,571.52C930.74,570.94 932.58,570.66 933.93,570.45C935.28,570.24 935.93,570.7 935.93,571.97C935.93,578.3 935.93,587.73 935.82,600.42C935.71,613.11 935.67,622.88 935.68,629.21Z" style="fill-rule:nonzero;"/>
                    </g>
                    <g transform="matrix(1,0,0,1,-487,-54)">
                        <path d="M996.29,625.45C996.29,634.74 992.37,643.37 984.5,651.2C977.576,658.272 968.975,663.481 959.5,666.34L958.66,666.47C957.53,666.65 955.28,663.9 951.66,657.99C948.04,652.08 946.16,648.43 946.16,646.99C946.16,646.43 946.58,646.08 947.28,645.83C951.794,644.195 956.188,642.247 960.43,640C965.07,636.89 967.43,633 967.43,628.36C967.43,625.36 965.88,622.27 962.78,619.09C957.43,613.73 954.48,610.67 954.05,610.03C950.817,605.71 949.129,600.425 949.26,595.03C949.26,586.59 953.04,579.1 960.77,572.28C967.598,566.542 975.548,562.288 984.11,559.79C984.67,559.7 984.95,559.52 985.23,559.48C985.94,559.37 986.5,559.84 986.92,560.9C988.05,564.11 990.87,569.72 995.24,577.77C995.372,577.971 995.467,578.195 995.52,578.43C995.52,578.44 995.52,578.45 995.52,578.46C995.52,579.157 994.956,579.734 994.26,579.75C993.656,579.853 993.043,579.9 992.43,579.89C991.727,579.849 991.023,579.849 990.32,579.89C987.212,580.369 984.267,581.598 981.74,583.47C978.74,585.76 977.24,588.39 977.25,591.47C977.25,594.28 978.94,597.4 982.18,600.98C988.09,607.52 991.05,610.86 991.33,611.1C994.455,615.24 996.191,620.264 996.29,625.45Z" style="fill-rule:nonzero;"/>
                    </g>
                </g>
            </g>
        </g>
    </g>
</svg>
