<svg id="Layer_1" data-name="Layer 1" xmlns="http://www.w3.org/2000/svg" viewBox="0 0 42 31.5"><defs><style>.cls-1{isolation:isolate;}.cls-2{fill:#fff;}</style></defs><g id="envelope" class="cls-1"><g class="cls-1"><path class="cls-2" d="M43,10.44V34.06A3.93,3.93,0,0,1,39.06,38H4.94A3.93,3.93,0,0,1,1,34.06V10.44A3.93,3.93,0,0,1,4.94,6.5H39.06A3.93,3.93,0,0,1,43,10.44Zm-38.06,0v3.35c1.84,1.49,4.77,3.82,11,8.73,1.38,1.09,4.12,3.7,6,3.67s4.64-2.58,6-3.67c6.27-4.91,9.2-7.24,11-8.73V10.44ZM39.06,34.06V18.84c-1.88,1.49-4.54,3.6-8.61,6.78-1.85,1.45-4.95,4.52-8.45,4.5s-6.66-3.09-8.45-4.5c-4.07-3.18-6.73-5.29-8.61-6.78V34.06Z" transform="translate(-1 -6.5)"/></g></g></svg>