<svg id="Layer_1" data-name="Layer 1" xmlns="http://www.w3.org/2000/svg" viewBox="0 0 36.75 42.01"><defs><style>.cls-1{isolation:isolate;}.cls-2{fill:#fff;}</style></defs><g id="receipt" class="cls-1"><g class="cls-1"><path class="cls-2" d="M38.38,4.7V41.81a2.44,2.44,0,0,1-3.88,2l-3.57-2.57L27.77,43.5a3.93,3.93,0,0,1-4.6,0L20,41.21,16.83,43.5a3.93,3.93,0,0,1-4.6,0L9.07,41.21,5.5,43.79a2.45,2.45,0,0,1-3.88-2V4.7a2.45,2.45,0,0,1,3.88-2L9.07,5.29,12.23,3a4.6,4.6,0,0,1,2.3-.74,4.57,4.57,0,0,1,2.3.74L20,5.29,23.17,3a3.93,3.93,0,0,1,4.6,0l3.16,2.29L34.5,2.72A2.45,2.45,0,0,1,38.38,4.7ZM34.44,7.62,31,10.14,25.48,6.2,20,10.14,14.54,6.2,9.07,10.14,5.56,7.62V38.88l3.49-2.52,5.47,3.94L20,36.36l5.47,3.94,5.47-3.94,3.51,2.52ZM30.5,17.34V20a.65.65,0,0,1-.66.65H10.16A.66.66,0,0,1,9.5,20V17.34a.66.66,0,0,1,.66-.65H29.84A.65.65,0,0,1,30.5,17.34Zm0,9.19v2.63a.65.65,0,0,1-.66.65H10.16a.66.66,0,0,1-.66-.65V26.53a.66.66,0,0,1,.66-.65H29.84A.65.65,0,0,1,30.5,26.53Z" transform="translate(-1.63 -2.25)"/></g></g></svg>