<svg xmlns="http://www.w3.org/2000/svg" fill-rule="evenodd" stroke-linecap="round" stroke-linejoin="round" stroke-miterlimit="1.5" clip-rule="evenodd" viewBox="0 0 288 288">
  <defs/>
  <path fill="#fff" stroke="#000" d="M104.32 17.33v21.93l7.9 10.07 1.58 14.03-35.95 49.78.4 150.51 17.18 13.24 101.73-1.38 16.99-21.93-1.98-141.83-36.93-48.4 1.58-19.74 8.69-11.26-1.58-16.4-39.9-5.33-39.7 6.71"/>
  <path fill-rule="nonzero" d="M125.94 107.6c3.9-8.15.8-11.9-6.92-8.4-7.74 3.51-17.16 12.96-21.07 21.1-3.9 8.15-.8 11.91 6.92 8.4 7.74-3.51 17.17-12.96 21.07-21.1z"/>
  <path fill-rule="nonzero" d="M106.33 286.55h75.34c26.5 0 42.3-17.62 42.3-47.06V132.03c0-25.7-11.6-39.02-20.05-48.75l-1.73-2.01c-1.2-1.33-2.36-2.69-3.5-4.07-2.06-2.43-3.93-4.44-5.7-6.35-5.66-6.03-8.8-9.4-8.8-17.06v-2.8a21.29 21.29 0 007.67-6.6c.47-.55.9-1.21 1.12-1.63a22.6 22.6 0 001.69-3.08c.33-.82.61-1.67.83-2.53.2-.46.38-.98.43-1.3.55-2.12.88-4.28.98-6.46v-9.71c0-5.94-3.64-11.12-8.83-12.81l-.28-.14-.99-.28a186.6 186.6 0 00-42.8-5c-14.36 0-28.75 1.68-42.82 5l-.98.33a13.39 13.39 0 00-9.12 12.9v9.95c.15 2.29.47 4.34.9 5.98.13.51.27 1.03.46 1.54.23.84.56 1.73.98 2.8.52.99.99 1.92 1.45 2.58.42.73.9 1.43 1.4 2.1 1.97 2.7 4.55 4.9 7.53 6.4v2.76c0 7.66-3.13 11.03-8.79 17.06-1.78 1.92-3.64 3.92-5.7 6.36-1.12 1.3-2.3 2.66-3.41 4.02l-1.78 2c-8.5 9.72-20.1 23.1-20.1 48.8v107.45c0 29.45 15.8 47.06 42.3 47.06zm3.46-262.2c0-.38.28-.7.66-.8a164.63 164.63 0 0133.55-3.4 164.9 164.9 0 0133.56 3.4c.37.09.65.42.65.8V33a.8.8 0 01-.5.75c-1.64.65-7.26 2.8-12.2 4.02a91.9 91.9 0 01-21.5 2.56c-7.63 0-14.96-.98-21.5-2.56a105.54 105.54 0 01-12.2-4.02.8.8 0 01-.52-.75v-8.65zM82.73 132.03c0-2.57.14-4.96.42-7.15.06-.84.2-1.64.34-2.43.38-2.4.97-4.76 1.77-7.06.23-.66.46-1.26.7-1.87 0-.05.05-.14.1-.18.27-.7.6-1.4.93-2.07a28.85 28.85 0 012.2-4.06 72.5 72.5 0 012.66-3.88c.94-1.3 1.97-2.57 2.99-3.88l3.36-3.92 1.27-1.5c1.4-1.59 2.8-3.22 4.2-4.86.66-.8 1.36-1.54 2.02-2.29.18-.23.36-.47.6-.7.8-.9 1.6-1.78 2.38-2.57 0-.05 0-.05.05-.1 6.45-6.86 13.79-14.72 13.79-29.72v-6.45a96.23 96.23 0 0021.5 2.34c7.01 0 13.8-.71 20.1-2.06.47-.1.94-.16 1.4-.26v6.43c0 15.01 7.34 22.86 13.78 29.73.05.05.05.05.05.1.8.79 1.6 1.68 2.39 2.56.23.24.42.47.6.7.66.75 1.36 1.5 2.01 2.3 1.4 1.63 2.81 3.27 4.2 4.86l1.27 1.5c1.17 1.35 2.3 2.65 3.37 3.92 1.03 1.3 2.06 2.57 2.99 3.88a69.37 69.37 0 012.66 3.88c.84 1.29 1.58 2.65 2.2 4.06.34.67.65 1.36.93 2.06.05.05.1.14.1.18.23.62.47 1.22.7 1.88.8 2.3 1.39 4.66 1.78 7.06.14.8.27 1.58.32 2.42.28 2.2.42 4.59.42 7.15V239.5c0 2.7-.14 5.14-.42 7.33a70.67 70.67 0 01-.75 4.02c-2.29 9.44-7.43 13.65-12.38 15.52-.84.33-1.73.56-2.67.8-.51.08-.98.18-1.5.27-.22.05-.5.1-.74.1l-.93.14c-.8.04-1.54.14-2.3.14-.65.05-1.25.05-1.91.05h-75.34c-.65 0-1.27 0-1.92-.05-.75 0-1.5-.1-2.3-.14l-.92-.14c-.24 0-.52-.05-.75-.1l-1.5-.28c-.9-.2-1.8-.47-2.66-.8-4.96-1.86-10.1-6.07-12.39-15.51a70.85 70.85 0 01-.74-4.02c-.28-2.2-.43-4.63-.43-7.33V132.03z"/>
  <path fill-rule="nonzero" d="M188.9 209.3c.62 0 .93.3.93.87v10.79c0 .62-.37.87-1.06.87-2.06 0-5.12-.06-9.24-.19-3.07-.15-6.15-.23-9.23-.25-.55 0-.87.07-.93.25.12.26 3.24 1.63 9.42 4.13 3.62 1.43 7.17 2.92 10.79 4.36.5.18.75.44.81.75.06.13.06.5.06 1.24 0 1.06-.19 1.7-.62 1.88a151.96 151.96 0 01-9.73 4.3c-4.56 1.94-7.8 3.37-9.8 4.3-.12.07-.18.13-.31.32.19.12.44.19.87.19 2 0 5-.07 8.92-.13 4-.13 7-.19 9-.19.68 0 1.05.32 1.05.88v10.17c0 .37-.06.62-.19.74-.22.1-.45.14-.68.13-2.25 0-5.56-.13-9.98-.31-4.43-.2-7.8-.31-9.99-.31-2.37 0-6.8.06-13.22.3-1.69 0-4.24.07-7.55.26l-.5.05c-.44 0-.62-.43-.62-1.3 0-1.12-.07-2.81-.13-5-.06-2.24-.06-3.92-.06-5.04 0-.25.37-.57 1.25-.94l19.52-8.92c1.31-.62 2-1.12 2-1.56 0-.25-.75-.69-2.3-1.44-4.25-2.06-10.68-5.11-19.28-9.1-.82-.38-1.2-.75-1.2-1.12 0-.63 0-1.5.07-2.69.06-1.18.13-2.06.13-2.68 0-.5-.07-1.31-.2-2.3-.05-1.07-.11-1.88-.11-2.38 0-.62.24-.87.74-.87 2.38 0 6 .06 10.73.25 4.75.12 8.36.25 10.73.25 2.19 0 5.56-.13 9.99-.32 4.42-.12 7.73-.25 9.91-.25zm-21.59-18.02a437 437 0 0010.8-.2c4.86-.12 8.41-.18 10.85-.18.37 0 .62.06.75.25l.12.81c.19 1.3.25 3.12.25 5.3 0 3-.06 4.87-.25 5.68-.12.56-.43.88-.94.88.32 0-1.5-.07-5.36-.26-8.24-.37-13.6-.56-16.22-.56-2.19 0-5.43.06-9.8.2-4.3.18-7.54.24-9.73.24-.44 0-.68-.25-.68-.75 0-.62 0-1.56.05-2.8.07-1.31.13-2.26.13-2.88 0-.62-.05-1.56-.12-2.8-.06-1.2-.06-2.12-.06-2.75 0-.62.24-.88.68-.88 2.19 0 5.43.07 9.74.32 4.36.25 7.6.38 9.8.38zm23.02-34.25c0 1.75 0 4.06-.13 6.87-.05 3.62-.12 5.92-.12 6.8l-.13 9.1c0 .94 0 2.25-.12 3.94-.12.62-.43.87-.94.87-2.24 0-5.55 0-9.98-.07-6.84-.19-13.68-.17-20.52.07-4.68.18-8.24.24-10.55.24-.5 0-.68-.3-.68-.93 0-.62 0-1.5.06-2.75.06-1.18.12-2.06.12-2.67 0-.7-.05-1.7-.12-3-.06-1.3-.12-2.31-.12-3 0-.25.24-.43.62-.37h.38c3.8.25 9.54.5 17.21.81l8.05.06c2.62 0 4.5 0 5.68-.06.25 0 .5 0 .74-.06.26 0 .38-.19.44-.44v-.81c0-1.81-.06-4.55-.25-8.17-.25-3.68-.3-6.42-.3-8.24 0-.56.24-.8.68-.8 3.5 0 6.48.24 8.98.74.56.13.87.32.93.63.07.12.07.55.07 1.25v-.01zm-2.18-43.6c.87 0 1.43.38 1.68 1.12.19.63.31 2.25.31 4.81 0 2.5-.12 4.37-.31 5.49-.12.56-.19.94-.31 1.06-.24.29-.54.52-.88.69-2.74 1.5-5.42 2.93-8.16 4.43-4.38 2.37-6.8 3.87-7.24 4.3.81 2.18 1.37 3.3 1.68 3.3 1.56 0 3.87-.05 6.93-.18 3.05-.12 5.36-.19 6.92-.19.63 0 1 .26 1.06.81.19 1.06.25 3 .25 5.74 0 2.62-.06 4.37-.25 5.24-.12.57-.43.88-.94.88-2.18 0-5.49-.13-9.91-.31-4.43-.2-7.8-.32-9.99-.32-2.37 0-5.86.06-10.6.32-4.74.18-8.3.3-10.6.3-.45 0-.7-.24-.7-.68 0-.62 0-1.56.06-2.8.07-1.32.13-2.25.13-2.88 0-.62-.05-1.62-.12-2.87-.06-1.3-.06-2.24-.06-2.86 0-.38.18-.57.56-.57 1.5 0 3.74.13 6.8.26 3.06.18 5.3.24 6.8.24 1.75 0 2.62-.5 2.62-1.43 0-2.43-.69-4.3-2-5.68-.93-.94-2.74-2-5.3-3a155.3 155.3 0 01-8.74-3.17c-.5-.26-.74-.7-.74-1.38 0-.56 0-1.31.05-2.37.07-1.12.13-1.87.13-2.43s0-1.38-.05-2.43c-.07-1.06-.07-1.88-.07-2.44 0-.5.25-.74.68-.74.69 0 2.32.43 4.93 1.3 7.68 2.5 12.48 5.43 14.35 8.67.38.69.69 1 .94 1l9.17-5.61c6.11-3.74 9.73-5.61 10.91-5.61v-.01z"/>
  <g>
    <path fill-rule="nonzero" d="M237.06 271.79a6.8 6.8 0 01-2.04 4.99 6.67 6.67 0 01-4.87 2.04 6.5 6.5 0 01-4.87-2.1 6.85 6.85 0 01-1.98-4.93c0-1.92.66-3.55 1.98-4.93a6.45 6.45 0 014.87-2.04c1.92 0 3.55.66 4.87 2.04a6.67 6.67 0 012.04 4.93zM255.69 262.29c0 4.87-.36 8.66-1.2 11.36-1.45 4.75-3.8 8.48-6.98 11.18-.36.3-.66.49-.9.49s-.42-.12-.66-.37a69.48 69.48 0 00-3.19-3.6c-.84-.72-2.1-1.8-3.73-3.3-.24-.25-.36-.43-.36-.61s.12-.36.36-.54a53.58 53.58 0 002.77-2.59c.72-.96 1.32-2.1 1.74-3.48.54-1.93.84-5.05.84-9.38 0-10.04-.36-17.86-1.08-23.39-.06-.18-.06-.36-.06-.42 0-.36.3-.54.96-.54.6 0 1.57 0 2.77.06s2.16.12 2.77.12c.6 0 1.44-.06 2.64-.12 1.14-.06 1.98-.06 2.59-.06.54 0 .84.24.84.78 0 2.7 0 6.74-.06 12.15 0 5.47-.06 9.55-.06 12.26zM281.6 264.7c0 3.96-1.69 7.39-5.06 10.21a20.87 20.87 0 01-10.7 4.81h-.36c-.48 0-1.44-1.32-3-4.08-1.57-2.77-2.35-4.45-2.35-5.05 0-.24.18-.36.48-.42 2.83-.67 4.7-1.2 5.65-1.63 1.99-1.02 3-2.52 3-4.5 0-1.27-.65-2.71-1.98-4.27a87.5 87.5 0 01-3.72-4.45 11.69 11.69 0 01-2.05-6.74c0-3.6 1.63-6.55 4.93-8.95a23.1 23.1 0 019.98-3.8c.24 0 .36-.05.48-.05.3 0 .54.24.73.72.48 1.44 1.68 4.03 3.54 7.75.06.12.12.25.12.3 0 .3-.18.49-.54.49-.18 0-.42 0-.78-.06-.42-.06-.66-.12-.9-.12-1.38 0-2.65.36-3.67.96-1.26.78-1.92 1.8-1.92 3.12 0 1.2.72 2.65 2.1 4.4 2.53 3.18 3.79 4.8 3.9 4.92a12 12 0 012.11 6.43z"/>
  </g>
</svg>
