<svg xmlns="http://www.w3.org/2000/svg" viewBox="0 0 186 29.13">
  <g id="Group_3584" data-name="Group 3584" transform="translate(-742.383 -187.134)">
    <g id="Layer_6" data-name="Layer 6" transform="translate(742.383 187.495)">
      <path id="Path_5819" data-name="Path 5819" d="M766.026,188.009H750.3v.178c-1.046.1-1.635.177-1.966.506a2.543,2.543,0,0,0-.4,1.637c0,.173-.007.356-.007.561v.808h0c0,.009,0,.018,0,.028-.035.951-.018,2.052-.018,2.671l-.029,3.777c2.436-1.9,3.951-2.407,5.288-2.407,2.021,0,2.734,1.308,2.734,3.507v5.764c0,2.229.118,2.556,2.317,2.7.029,0,.059.18.029.18-.623-.09-2.376-.18-3.208-.18a20.17,20.17,0,0,0-2.913.18c-.059,0,0-.18.03-.18,1.634-.147,1.99-.355,1.99-2.7v-4.457c0-2.7-.683-3.833-2.287-3.833-.951,0-1.723.268-3.981,1.665v6.625c0,2.2.266,2.556,1.96,2.7.03,0,.089.18.03.18a24.789,24.789,0,0,0-2.763-.18,27.666,27.666,0,0,0-3.358.18c-.06,0,0-.18,0-.18,2.14-.207,2.377-.3,2.377-2.7l.028-14.918a2.3,2.3,0,0,0-.391-1.428c-.331-.329-.921-.4-1.965-.533v-.151h-1.37v6.137a7.2,7.2,0,0,0-.042.751v13.882a6.89,6.89,0,0,0,6.889,6.89H765.01v-.148c1.044-.1,1.635-.177,1.966-.506a2.551,2.551,0,0,0,.4-1.635c0-.174.007-.357.007-.562v-.807h0c0-.01,0-.019,0-.029.035-.952.018-2.052.018-2.671l.03-3.777c-2.436,1.9-3.952,2.407-5.289,2.407-2.021,0-2.735-1.307-2.735-3.506V198.67c0-2.229-.117-2.555-2.316-2.7-.03,0-.06-.179-.03-.179.624.089,2.377.179,3.21.179a20.235,20.235,0,0,0,2.911-.179c.06,0,0,.179-.03.179-1.633.149-1.989.356-1.989,2.7v4.457c0,2.7.683,3.833,2.287,3.833.951,0,1.724-.267,3.982-1.664V198.67c0-2.2-.267-2.555-1.961-2.7-.03,0-.089-.179-.03-.179a25.058,25.058,0,0,0,2.763.179,27.788,27.788,0,0,0,3.358-.179c.059,0,0,.179,0,.179-2.139.207-2.377.3-2.377,2.7l-.028,14.919a2.3,2.3,0,0,0,.391,1.426c.332.33.921.4,1.966.533v.121h1.4V194.9A6.889,6.889,0,0,0,766.026,188.009Z" transform="translate(-742.383 -188.009)" fill="#fff"/>
    </g>
    <g id="Layer_5" data-name="Layer 5" transform="translate(778.529 187.134)">
      <path id="Path_5820" data-name="Path 5820" d="M840.564,194.324h-9.123v-6.6h-1.059V201.98h1.059V195.3h9.123v6.679h1.059V187.726h-1.059Z" transform="translate(-830.233 -187.482)" fill="#fff"/>
      <path id="Path_5821" data-name="Path 5821" d="M865.876,197.844h8.41l1.812,3.991h1.161l-6.639-14.357H869.6l-6.639,14.357h1.1Zm4.215-9.2,3.747,8.248h-7.514Z" transform="translate(-849.375 -187.336)" fill="#fff"/>
      <path id="Path_5822" data-name="Path 5822" d="M914.559,201.98l-4.7-6.089c2.4-.326,4.175-1.69,4.175-4.072v-.041c0-2.382-2.016-4.052-5.09-4.052h-5.986V201.98h1.059v-5.905h4.663l4.541,5.905Zm-10.547-6.863V188.7h4.866c2.586,0,4.093,1.2,4.093,3.116v.04c0,2.057-1.772,3.258-4.154,3.258Z" transform="translate(-872.871 -187.482)" fill="#fff"/>
      <path id="Path_5823" data-name="Path 5823" d="M937.726,187.726h-1.059V201.98h9.428V201h-8.369Z" transform="translate(-892.679 -187.482)" fill="#fff"/>
      <path id="Path_5824" data-name="Path 5824" d="M979.545,201.835l-6.639-14.357h-1.017l-6.639,14.357h1.1l1.813-3.991h8.409l1.813,3.991Zm-10.934-4.948,3.767-8.248,3.746,8.248Z" transform="translate(-909.473 -187.336)" fill="#fff"/>
      <path id="Path_5825" data-name="Path 5825" d="M1016.07,200.127l-9.836-12.4h-1V201.98h1.019V189.315l10.039,12.665h.794V187.726h-1.018Z" transform="translate(-932.966 -187.482)" fill="#fff"/>
      <path id="Path_5826" data-name="Path 5826" d="M1067.506,187.726l-5.356,7.657-5.334-7.657h-1.324l6.108,8.613v5.641h1.059v-5.661l6.109-8.593Z" transform="translate(-962.493 -187.482)" fill="#fff"/>
      <path id="Path_5827" data-name="Path 5827" d="M1098.076,187.134a7.173,7.173,0,0,0-7.188,7.371v.04a7.17,7.17,0,1,0,14.335-.04c.021-.02.021-.02,0-.04A7.106,7.106,0,0,0,1098.076,187.134Zm6.047,7.411a6.1,6.1,0,0,1-6.047,6.373,6.167,6.167,0,0,1-6.088-6.414v-.04a6.1,6.1,0,0,1,6.048-6.374,6.168,6.168,0,0,1,6.088,6.413Z" transform="translate(-983.29 -187.134)" fill="#fff"/>
      <path id="Path_5828" data-name="Path 5828" d="M1142,191.819v-.041c0-2.382-2.015-4.052-5.091-4.052h-5.987V201.98h1.059v-5.905h4.663l4.541,5.905h1.344l-4.7-6.089C1140.228,195.566,1142,194.2,1142,191.819Zm-10.018,3.3V188.7h4.867c2.586,0,4.093,1.2,4.093,3.116v.04c0,2.057-1.772,3.258-4.155,3.258Z" transform="translate(-1006.812 -187.482)" fill="#fff"/>
      <path id="Path_5829" data-name="Path 5829" d="M1165.453,198.356l3.543-3.584,5.864,7.208h1.385l-6.5-7.962,6.231-6.292h-1.446l-9.082,9.367v-9.367h-1.059V201.98h1.059Z" transform="translate(-1026.478 -187.482)" fill="#fff"/>
      <path id="Path_5830" data-name="Path 5830" d="M837.8,237.387l-.62-.251a11.946,11.946,0,0,1-1.2,2.246l-2.431-2.5c1.414-.488,2.273-1.228,2.273-2.4a2.054,2.054,0,0,0-2.127-2.021,2.155,2.155,0,0,0-2.312,2.113,3.046,3.046,0,0,0,1.03,2.126c-1.505.555-2.391,1.467-2.391,2.721A2.618,2.618,0,0,0,832.86,242a4.036,4.036,0,0,0,3.131-1.6l1.6,1.651.542-.449-1.7-1.757A12.937,12.937,0,0,0,837.8,237.387Zm-5.732-2.839a1.512,1.512,0,0,1,1.6-1.507,1.439,1.439,0,0,1,1.467,1.466c0,.9-.674,1.533-2,1.955C832.318,235.592,832.067,235.142,832.067,234.548Zm.805,6.855a2.032,2.032,0,0,1-2.166-2.007c0-.912.647-1.77,2.113-2.273l2.735,2.827A3.553,3.553,0,0,1,832.872,241.4Z" transform="translate(-830.019 -213.765)" fill="#fff"/>
      <path id="Path_5831" data-name="Path 5831" d="M866.058,232.685,861.752,242h.714l1.175-2.589H869.1L870.272,242h.753l-4.306-9.312Zm-2.127,6.1,2.444-5.35,2.431,5.35Z" transform="translate(-848.663 -213.897)" fill="#fff"/>
      <path id="Path_5832" data-name="Path 5832" d="M890.4,241.727c-.964-.277-1.876-.555-1.876-1.308v-.026c0-.674.608-1.176,1.533-1.176a3.869,3.869,0,0,1,2.073.674l.344-.541a4.544,4.544,0,0,0-2.391-.74,1.981,1.981,0,0,0-2.219,1.863v.026c0,1.2,1.215,1.532,2.311,1.849.938.265,1.783.556,1.783,1.348v.027c0,.78-.713,1.282-1.625,1.282a3.95,3.95,0,0,1-2.417-.886l-.384.515a4.615,4.615,0,0,0,2.762.978,2.088,2.088,0,0,0,2.324-1.968v-.027C892.615,242.427,891.479,242.031,890.4,241.727Z" transform="translate(-863.808 -217.378)" fill="#fff"/>
      <path id="Path_5833" data-name="Path 5833" d="M905.992,241.727c-.965-.277-1.876-.555-1.876-1.308v-.026c0-.674.608-1.176,1.533-1.176a3.867,3.867,0,0,1,2.073.674l.344-.541a4.543,4.543,0,0,0-2.391-.74,1.98,1.98,0,0,0-2.219,1.863v.026c0,1.2,1.214,1.532,2.311,1.849.938.265,1.783.556,1.783,1.348v.027c0,.78-.712,1.282-1.624,1.282a3.952,3.952,0,0,1-2.418-.886l-.383.515a4.611,4.611,0,0,0,2.761.978,2.089,2.089,0,0,0,2.325-1.968v-.027C908.211,242.427,907.075,242.031,905.992,241.727Z" transform="translate(-872.972 -217.378)" fill="#fff"/>
      <path id="Path_5834" data-name="Path 5834" d="M922.161,238.545a3.481,3.481,0,0,0-3.474,3.527v.026a3.445,3.445,0,0,0,3.448,3.5,3.48,3.48,0,0,0,3.474-3.527v-.026A3.445,3.445,0,0,0,922.161,238.545Zm2.747,3.554a2.779,2.779,0,0,1-2.747,2.892,2.823,2.823,0,0,1-2.773-2.919v-.026a2.779,2.779,0,0,1,2.747-2.893,2.824,2.824,0,0,1,2.773,2.92Z" transform="translate(-882.115 -217.34)" fill="#fff"/>
      <path id="Path_5835" data-name="Path 5835" d="M942.175,244.991a2.832,2.832,0,0,1-2.774-2.919v-.026a2.784,2.784,0,0,1,2.721-2.893,3.038,3.038,0,0,1,2.247,1.11l.461-.476a3.469,3.469,0,0,0-6.128,2.285v.026a3.454,3.454,0,0,0,6.182,2.166l-.449-.4A3.015,3.015,0,0,1,942.175,244.991Z" transform="translate(-893.875 -217.34)" fill="#fff"/>
      <rect id="Rectangle_2458" data-name="Rectangle 2458" width="0.648" height="6.737" transform="translate(52.659 21.363)" fill="#fff"/>
      <rect id="Rectangle_2459" data-name="Rectangle 2459" width="0.806" height="0.886" transform="translate(52.58 18.721)" fill="#fff"/>
      <path id="Path_5836" data-name="Path 5836" d="M966.452,238.673a5.423,5.423,0,0,0-2.391.581l.238.568a4.51,4.51,0,0,1,2.113-.541,1.938,1.938,0,0,1,2.219,2.061v.29a8.1,8.1,0,0,0-2.232-.29c-1.743,0-2.945.792-2.945,2.193v.026a2.346,2.346,0,0,0,2.6,2.114,3.062,3.062,0,0,0,2.576-1.281v1.122h.634v-4.2C969.266,239.571,968.183,238.673,966.452,238.673Zm2.193,4.32a2.314,2.314,0,0,1-2.55,2.073c-1.03,0-1.954-.568-1.954-1.545v-.026c0-.938.792-1.572,2.219-1.572a8.96,8.96,0,0,1,2.285.3Z" transform="translate(-908.417 -217.415)" fill="#fff"/>
      <path id="Path_5837" data-name="Path 5837" d="M982.5,233.71h-.647v2.153h-.977v.594h.977v4.413a1.723,1.723,0,0,0,1.889,1.849,2.472,2.472,0,0,0,1.1-.238v-.608a2.252,2.252,0,0,1-.99.238A1.182,1.182,0,0,1,982.5,240.8v-4.347h2.365v-.594H982.5Z" transform="translate(-918.652 -214.499)" fill="#fff"/>
      <path id="Path_5838" data-name="Path 5838" d="M997.1,238.545a3.321,3.321,0,0,0-3.2,3.514v.027a3.348,3.348,0,0,0,3.3,3.514,3.543,3.543,0,0,0,2.787-1.268l-.45-.4a3.026,3.026,0,0,1-2.311,1.056,2.671,2.671,0,0,1-2.642-2.654h5.588a1.627,1.627,0,0,0,.012-.238v-.026C1000.193,240.078,998.992,238.545,997.1,238.545Zm-2.509,3.21a2.625,2.625,0,0,1,2.483-2.615,2.5,2.5,0,0,1,2.417,2.615Z" transform="translate(-926.309 -217.34)" fill="#fff"/>
      <path id="Path_5839" data-name="Path 5839" d="M1015.183,241.727c-.964-.277-1.876-.555-1.876-1.308v-.026c0-.674.608-1.176,1.533-1.176a3.871,3.871,0,0,1,2.074.674l.344-.541a4.543,4.543,0,0,0-2.391-.74,1.981,1.981,0,0,0-2.219,1.863v.026c0,1.2,1.215,1.532,2.311,1.849.938.265,1.783.556,1.783,1.348v.027c0,.78-.713,1.282-1.625,1.282a3.95,3.95,0,0,1-2.417-.886l-.384.515a4.616,4.616,0,0,0,2.762.978,2.089,2.089,0,0,0,2.325-1.968v-.027C1017.4,242.427,1016.267,242.031,1015.183,241.727Z" transform="translate(-937.126 -217.378)" fill="#fff"/>
      <rect id="Rectangle_2460" data-name="Rectangle 2460" width="0.442" height="3.916" transform="translate(88.36 24.302)" fill="#fff"/>
      <path id="Path_5840" data-name="Path 5840" d="M1051.233,248.387a1.153,1.153,0,0,0-1.019.576.982.982,0,0,0-.929-.576,1.058,1.058,0,0,0-.935.548v-.487h-.431v2.893h.431V249.69a.839.839,0,0,1,.806-.912c.459,0,.744.319.744.862v1.7h.425v-1.667a.81.81,0,0,1,.8-.9c.47,0,.75.313.75.873v1.689h.431v-1.79A1.039,1.039,0,0,0,1051.233,248.387Z" transform="translate(-958.045 -223.123)" fill="#fff"/>
      <path id="Path_5841" data-name="Path 5841" d="M1064.127,248.387a1.153,1.153,0,0,0-1.018.576.983.983,0,0,0-.929-.576,1.058,1.058,0,0,0-.935.548v-.487h-.431v2.893h.431V249.69a.839.839,0,0,1,.806-.912c.459,0,.744.319.744.862v1.7h.425v-1.667a.81.81,0,0,1,.8-.9c.47,0,.75.313.75.873v1.689h.431v-1.79A1.039,1.039,0,0,0,1064.127,248.387Z" transform="translate(-965.621 -223.123)" fill="#fff"/>
      <rect id="Rectangle_2461" data-name="Rectangle 2461" width="0.431" height="2.892" transform="translate(100.552 25.326)" fill="#fff"/>
      <rect id="Rectangle_2462" data-name="Rectangle 2462" width="0.492" height="0.476" transform="translate(100.524 24.218)" fill="#fff"/>
      <path id="Path_5842" data-name="Path 5842" d="M1079.358,248.969a1.37,1.37,0,0,0-2.49.789,1.335,1.335,0,0,0,1.36,1.359,1.37,1.37,0,0,0,1.135-.61v.342a.951.951,0,0,1-1.052,1.029,1.848,1.848,0,0,1-1.113-.37l-.2.336a2.268,2.268,0,0,0,1.315.4,1.315,1.315,0,0,0,1.472-1.41v-2.389h-.431Zm-1.047,1.768a.977.977,0,0,1-1-.99.955.955,0,0,1,1-.979.988.988,0,1,1,0,1.969Z" transform="translate(-975.053 -223.123)" fill="#fff"/>
      <path id="Path_5843" data-name="Path 5843" d="M1086.708,249.219v-.756h-.431v2.893h.431V250.2a1.167,1.167,0,0,1,1.147-1.326h.033v-.464A1.239,1.239,0,0,0,1086.708,249.219Z" transform="translate(-980.581 -223.137)" fill="#fff"/>
      <path id="Path_5844" data-name="Path 5844" d="M1092.209,248.441a2.381,2.381,0,0,0-1.052.241l.129.352a2.011,2.011,0,0,1,.878-.212c.543,0,.862.268.862.789v.1a3.079,3.079,0,0,0-.89-.123c-.733,0-1.236.325-1.236.94a.972.972,0,0,0,1.08.907,1.269,1.269,0,0,0,1.046-.5v.436h.414V249.6A1.079,1.079,0,0,0,1092.209,248.441Zm.822,1.869a.874.874,0,0,1-.968.783c-.392,0-.728-.212-.728-.582s.3-.6.845-.6a3.02,3.02,0,0,1,.85.123Z" transform="translate(-983.297 -223.154)" fill="#fff"/>
      <path id="Path_5845" data-name="Path 5845" d="M1099.435,246.42H1099v.873h-.4v.38h.4v1.746a.736.736,0,0,0,.817.817,1.078,1.078,0,0,0,.521-.123v-.369a.907.907,0,0,1-.42.1.428.428,0,0,1-.487-.481v-1.69h.918v-.38h-.918Z" transform="translate(-987.822 -221.967)" fill="#fff"/>
      <rect id="Rectangle_2463" data-name="Rectangle 2463" width="0.492" height="0.476" transform="translate(113.302 24.218)" fill="#fff"/>
      <rect id="Rectangle_2464" data-name="Rectangle 2464" width="0.431" height="2.892" transform="translate(113.33 25.326)" fill="#fff"/>
      <path id="Path_5846" data-name="Path 5846" d="M1109.331,248.387a1.5,1.5,0,0,0-1.511,1.516,1.483,1.483,0,0,0,1.5,1.505,1.5,1.5,0,0,0,1.516-1.516A1.488,1.488,0,0,0,1109.331,248.387Zm0,2.635a1.087,1.087,0,0,1-1.069-1.13,1.063,1.063,0,0,1,1.058-1.125,1.093,1.093,0,0,1,1.074,1.136A1.066,1.066,0,0,1,1109.331,251.022Z" transform="translate(-993.238 -223.123)" fill="#fff"/>
      <path id="Path_5847" data-name="Path 5847" d="M1118.434,248.387a1.094,1.094,0,0,0-.99.565v-.5h-.431v2.893h.431v-1.656a.851.851,0,0,1,.867-.907.771.771,0,0,1,.8.873v1.689h.431v-1.8A1.057,1.057,0,0,0,1118.434,248.387Z" transform="translate(-998.639 -223.123)" fill="#fff"/>
      <path id="Path_5848" data-name="Path 5848" d="M1130.58,245.986l-1.785,3.944h.453l.465-1.035h2.131l.459,1.035h.476l-1.785-3.944Zm-.694,2.512.9-2,.89,2Z" transform="translate(-1005.562 -221.712)" fill="#fff"/>
      <path id="Path_5849" data-name="Path 5849" d="M1139.96,246.42h-.431v.873h-.4v.38h.4v1.746a.736.736,0,0,0,.817.817,1.079,1.079,0,0,0,.521-.123v-.369a.907.907,0,0,1-.42.1.428.428,0,0,1-.487-.481v-1.69h.918v-.38h-.918Z" transform="translate(-1011.632 -221.967)" fill="#fff"/>
      <path id="Path_5850" data-name="Path 5850" d="M1145.438,246.42h-.431v.873h-.4v.38h.4v1.746a.736.736,0,0,0,.817.817,1.079,1.079,0,0,0,.521-.123v-.369a.907.907,0,0,1-.42.1.428.428,0,0,1-.487-.481v-1.69h.918v-.38h-.918Z" transform="translate(-1014.85 -221.967)" fill="#fff"/>
      <path id="Path_5851" data-name="Path 5851" d="M1151.565,248.387a1.5,1.5,0,0,0-1.51,1.516,1.483,1.483,0,0,0,1.5,1.505,1.5,1.5,0,0,0,1.516-1.516A1.488,1.488,0,0,0,1151.565,248.387Zm0,2.635a1.087,1.087,0,0,1-1.069-1.13,1.063,1.063,0,0,1,1.057-1.125,1.093,1.093,0,0,1,1.074,1.136A1.066,1.066,0,0,1,1151.565,251.022Z" transform="translate(-1018.053 -223.123)" fill="#fff"/>
      <path id="Path_5852" data-name="Path 5852" d="M1159.679,249.219v-.756h-.431v2.893h.431V250.2a1.166,1.166,0,0,1,1.147-1.326h.033v-.464A1.239,1.239,0,0,0,1159.679,249.219Z" transform="translate(-1023.454 -223.137)" fill="#fff"/>
      <path id="Path_5853" data-name="Path 5853" d="M1166.16,248.387a1.1,1.1,0,0,0-.991.565v-.5h-.431v2.893h.431v-1.656a.851.851,0,0,1,.867-.907.771.771,0,0,1,.8.873v1.689h.431v-1.8A1.057,1.057,0,0,0,1166.16,248.387Z" transform="translate(-1026.68 -223.123)" fill="#fff"/>
      <path id="Path_5854" data-name="Path 5854" d="M1174.045,248.387a1.514,1.514,0,0,0,.056,3.021,1.493,1.493,0,0,0,1.192-.543l-.269-.24a1.2,1.2,0,0,1-.912.408,1.013,1.013,0,0,1-1.018-.979h2.294a1.138,1.138,0,0,0,.006-.134A1.379,1.379,0,0,0,1174.045,248.387Zm-.951,1.348a1,1,0,0,1,.94-.985.952.952,0,0,1,.923.985Z" transform="translate(-1031.333 -223.123)" fill="#fff"/>
      <path id="Path_5855" data-name="Path 5855" d="M1181.6,250.947l-1.052-2.411h-.476l1.315,2.881c-.174.408-.336.543-.593.543a.906.906,0,0,1-.453-.106l-.145.342a1.316,1.316,0,0,0,.615.145c.436,0,.716-.218.962-.817l1.214-2.988h-.459Z" transform="translate(-1035.69 -223.21)" fill="#fff"/>
      <path id="Path_5856" data-name="Path 5856" d="M1189.235,249.706c-.386-.117-.744-.224-.744-.5V249.2c0-.24.218-.42.559-.42a1.635,1.635,0,0,1,.856.28l.2-.325a1.977,1.977,0,0,0-1.041-.319.875.875,0,0,0-.985.828v.012c0,.532.5.688.957.817.38.106.722.218.722.509v.012c0,.28-.252.459-.6.459a1.69,1.69,0,0,1-1-.369l-.218.308a1.991,1.991,0,0,0,1.2.425.911.911,0,0,0,1.03-.867v-.011C1190.164,250.014,1189.682,249.841,1189.235,249.706Z" transform="translate(-1040.31 -223.138)" fill="#fff"/>
    </g>
  </g>
</svg>
