<?xml version="1.0" encoding="UTF-8" standalone="no"?>
<!DOCTYPE svg PUBLIC "-//W3C//DTD SVG 1.1//EN" "http://www.w3.org/Graphics/SVG/1.1/DTD/svg11.dtd">
<svg width="100%" height="100%" viewBox="0 0 288 288" version="1.1" xmlns="http://www.w3.org/2000/svg" xmlns:xlink="http://www.w3.org/1999/xlink" xml:space="preserve" xmlns:serif="http://www.serif.com/" style="fill-rule:evenodd;clip-rule:evenodd;stroke-linecap:round;stroke-linejoin:round;stroke-miterlimit:1.5;">
    <g transform="matrix(0.556834,0,0,0.556834,1.45325,1.45046)">
        <g transform="matrix(1.79587,0,0,1.79587,-2.60984,-2.60484)">
            <path d="M104.321,17.333L104.321,39.259L112.222,49.333L113.802,63.358L77.852,113.136L78.247,263.654L95.432,276.889L197.16,275.506L214.148,253.58L212.173,111.753L175.235,63.358L176.815,43.605L185.506,32.346L183.926,15.951L144.025,10.617L104.321,17.333" style="fill:white;stroke:black;stroke-width:1px;"/>
        </g>
        <path d="M223.57,190.62C230.58,176 225.01,169.25 211.13,175.55C197.24,181.85 180.31,198.82 173.29,213.45C166.28,228.07 171.85,234.83 185.73,228.52C199.62,222.22 216.56,205.25 223.57,190.62Z" style="fill-rule:nonzero;"/>
        <path d="M188.35,512L323.65,512C371.25,512 399.61,480.36 399.61,427.48L399.61,234.5C399.61,188.34 378.79,164.42 363.61,146.96L360.5,143.34C358.351,140.95 356.25,138.516 354.2,136.04C350.51,131.68 347.15,128.07 343.96,124.64C333.81,113.81 328.18,107.76 328.18,93.99L328.18,88.96C333.48,86.36 338,82.41 341.95,77.13C342.79,76.12 343.55,74.94 343.96,74.18C345.112,72.418 346.125,70.569 346.99,68.65C347.588,67.174 348.089,65.661 348.49,64.12C348.83,63.28 349.17,62.35 349.25,61.76C350.248,57.974 350.838,54.092 351.01,50.18L351.01,32.73C351.01,22.07 344.47,12.76 335.15,9.73L334.65,9.48L332.88,8.98C307.686,3.027 281.887,0.014 256,0C230.23,0 204.38,3.02 179.12,8.98L177.35,9.58C167.53,12.76 160.98,22.08 160.98,32.74L160.98,50.6C161.24,54.72 161.82,58.4 162.58,61.35C162.83,62.27 163.08,63.19 163.42,64.12C163.84,65.62 164.42,67.22 165.18,69.15C166.11,70.91 166.95,72.59 167.78,73.77C168.541,75.081 169.382,76.343 170.3,77.55C173.839,82.394 178.472,86.334 183.82,89.05L183.82,94C183.82,107.76 178.19,113.8 168.04,124.64C164.84,128.08 161.49,131.68 157.8,136.05C155.78,138.4 153.68,140.83 151.67,143.27L148.48,146.87C133.2,164.33 112.38,188.34 112.38,234.5L112.38,427.47C112.38,480.35 140.76,511.99 188.35,511.99L188.35,512ZM194.55,41.13C194.55,40.45 195.06,39.87 195.74,39.7C215.564,35.599 235.756,33.545 256,33.57C276.23,33.57 296.54,35.59 316.26,39.7C316.934,39.847 317.424,40.441 317.44,41.13L317.44,56.66C317.44,57.24 317.11,57.75 316.52,58C313.58,59.17 303.5,63.03 294.61,65.22C281.97,68.272 269.013,69.819 256.01,69.83C242.31,69.83 229.14,68.07 217.39,65.22C208.49,63.03 198.42,59.17 195.49,58C194.932,57.792 194.56,57.256 194.56,56.66L194.56,41.13L194.55,41.13ZM145.97,234.5C145.97,229.89 146.22,225.6 146.72,221.66C146.82,220.15 147.06,218.72 147.32,217.3C148.012,212.989 149.076,208.747 150.5,204.62C150.92,203.44 151.34,202.36 151.76,201.26C151.76,201.18 151.85,201.01 151.93,200.93C152.43,199.67 153.03,198.41 153.61,197.23C154.726,194.695 156.044,192.254 157.55,189.93C159.07,187.58 160.66,185.23 162.34,182.97C164.02,180.62 165.87,178.35 167.71,176C169.64,173.73 171.66,171.38 173.75,168.95L176.02,166.26C178.54,163.41 181.06,160.47 183.57,157.54C184.75,156.11 186.01,154.76 187.19,153.42C187.52,153 187.85,152.58 188.27,152.16C189.7,150.56 191.13,148.97 192.55,147.54C192.55,147.46 192.55,147.46 192.64,147.38C204.22,135.04 217.4,120.94 217.4,93.99L217.4,82.42C229.4,85.19 242.5,86.62 256.01,86.62C268.61,86.62 280.79,85.33 292.11,82.92C292.95,82.75 293.8,82.62 294.62,82.45L294.62,94C294.62,120.95 307.8,135.05 319.38,147.39C319.46,147.47 319.46,147.47 319.46,147.55C320.89,148.98 322.32,150.58 323.75,152.17C324.16,152.59 324.5,153.01 324.84,153.43C326.01,154.77 327.28,156.12 328.44,157.55C330.97,160.48 333.49,163.42 336,166.27L338.27,168.97C340.37,171.4 342.38,173.74 344.31,176.01C346.16,178.36 348.01,180.63 349.68,182.98C351.36,185.24 352.96,187.59 354.47,189.94C355.979,192.262 357.297,194.704 358.41,197.24C359.021,198.449 359.582,199.684 360.09,200.94C360.17,201.02 360.26,201.19 360.26,201.27C360.68,202.37 361.1,203.45 361.52,204.63C362.95,208.756 364.017,212.999 364.71,217.31C364.96,218.74 365.21,220.16 365.3,221.67C365.8,225.62 366.05,229.9 366.05,234.51L366.05,427.48C366.05,432.34 365.8,436.71 365.3,440.66C364.88,443.26 364.45,445.61 363.95,447.87C359.84,464.83 350.61,472.38 341.71,475.74C340.21,476.33 338.61,476.74 336.92,477.17C336,477.33 335.16,477.5 334.24,477.67C333.82,477.75 333.31,477.84 332.9,477.84L331.22,478.09C329.79,478.17 328.45,478.34 327.1,478.34C325.93,478.43 324.84,478.43 323.66,478.43L188.36,478.43C187.19,478.43 186.09,478.43 184.92,478.34C183.57,478.34 182.23,478.17 180.8,478.09L179.13,477.84C178.7,477.84 178.2,477.75 177.78,477.67C176.86,477.5 176.02,477.33 175.1,477.17C173.475,476.794 171.875,476.317 170.31,475.74C161.41,472.38 152.18,464.83 148.07,447.87C147.57,445.61 147.15,443.26 146.73,440.66C146.23,436.71 145.97,432.34 145.97,427.48L145.97,234.5Z" style="fill-rule:nonzero;"/>
        <g>
            <path d="M336.62,373.26C337.74,373.26 338.3,373.82 338.3,374.83L338.3,394.21C338.3,395.33 337.63,395.78 336.4,395.78C332.7,395.78 327.2,395.66 319.81,395.44C314.287,395.169 308.759,395.019 303.23,394.99C302.23,394.99 301.67,395.1 301.55,395.44C301.78,395.89 307.38,398.35 318.47,402.84C324.97,405.41 331.35,408.1 337.85,410.68C338.75,411.01 339.2,411.46 339.31,412.02C339.42,412.25 339.42,412.92 339.42,414.26C339.42,416.16 339.08,417.29 338.3,417.62C334.27,419.64 328.44,422.22 320.82,425.35C312.64,428.83 306.82,431.4 303.23,433.08C303.01,433.2 302.9,433.31 302.67,433.64C303.01,433.87 303.46,433.98 304.24,433.98C307.83,433.98 313.2,433.87 320.26,433.76C327.43,433.53 332.81,433.42 336.4,433.42C337.63,433.42 338.3,433.98 338.3,434.99L338.3,453.25C338.3,453.92 338.19,454.37 337.96,454.59C337.571,454.752 337.152,454.831 336.73,454.82C332.7,454.82 326.76,454.59 318.81,454.26C310.85,453.92 304.81,453.7 300.88,453.7C296.62,453.7 288.67,453.81 277.13,454.26C274.1,454.26 269.51,454.37 263.57,454.71L262.67,454.81C261.89,454.81 261.56,454.03 261.56,452.47C261.56,450.45 261.44,447.42 261.33,443.5C261.23,439.47 261.23,436.45 261.23,434.43C261.23,433.98 261.89,433.42 263.46,432.75L298.53,416.73C300.88,415.61 302.11,414.71 302.11,413.93C302.11,413.48 300.77,412.69 297.97,411.35C290.35,407.65 278.81,402.16 263.35,394.99C261.89,394.32 261.22,393.65 261.22,392.98C261.22,391.86 261.22,390.28 261.33,388.16C261.44,386.03 261.56,384.46 261.56,383.34C261.56,382.44 261.44,380.99 261.22,379.2C261.11,377.3 261,375.83 261,374.94C261,373.82 261.44,373.37 262.34,373.37C266.6,373.37 273.1,373.48 281.61,373.82C290.13,374.04 296.62,374.27 300.88,374.27C304.8,374.27 310.85,374.04 318.81,373.71C326.76,373.48 332.7,373.26 336.62,373.26ZM297.86,340.9C302.23,340.9 308.61,340.79 317.24,340.56C325.98,340.34 332.36,340.22 336.74,340.22C337.4,340.22 337.85,340.34 338.08,340.67C338.08,340.79 338.18,341.23 338.3,342.13C338.64,344.48 338.75,347.73 338.75,351.65C338.75,357.03 338.64,360.39 338.3,361.85C338.08,362.85 337.52,363.42 336.62,363.42C337.18,363.42 333.93,363.3 326.99,362.97C312.19,362.3 302.56,361.96 297.86,361.96C293.93,361.96 288.11,362.07 280.26,362.3C272.54,362.63 266.71,362.74 262.79,362.74C262,362.74 261.56,362.3 261.56,361.4C261.56,360.28 261.56,358.6 261.66,356.36C261.78,354.01 261.89,352.32 261.89,351.2C261.89,350.08 261.79,348.4 261.67,346.16C261.56,344.03 261.56,342.36 261.56,341.23C261.56,340.11 262,339.66 262.79,339.66C266.71,339.66 272.54,339.78 280.27,340.22C288.11,340.67 293.93,340.9 297.86,340.9ZM339.2,279.4C339.2,282.54 339.2,286.69 338.97,291.73C338.87,298.23 338.75,302.37 338.75,303.94L338.52,320.3C338.52,321.98 338.52,324.33 338.3,327.36C338.08,328.48 337.52,328.93 336.62,328.93C332.59,328.93 326.65,328.93 318.69,328.81C306.408,328.466 294.119,328.506 281.84,328.93C273.44,329.26 267.04,329.37 262.9,329.37C262,329.37 261.67,328.81 261.67,327.69C261.67,326.57 261.67,325 261.78,322.76C261.89,320.64 262,319.06 262,317.95C262,316.71 261.9,314.92 261.78,312.57C261.67,310.22 261.56,308.42 261.56,307.19C261.56,306.74 262,306.41 262.68,306.52L263.35,306.52C270.18,306.97 280.49,307.42 294.27,307.98L308.72,308.08C313.42,308.08 316.79,308.08 318.92,307.98C319.37,307.98 319.82,307.98 320.26,307.86C320.71,307.86 320.94,307.53 321.05,307.08L321.05,305.62C321.05,302.37 320.94,297.44 320.6,290.95C320.15,284.34 320.04,279.41 320.04,276.15C320.04,275.15 320.49,274.7 321.27,274.7C327.55,274.7 332.92,275.15 337.4,276.05C338.41,276.27 338.97,276.61 339.08,277.17C339.2,277.39 339.2,278.17 339.2,279.41L339.2,279.4ZM335.28,201.1C336.84,201.1 337.85,201.78 338.3,203.12C338.64,204.24 338.86,207.16 338.86,211.75C338.86,216.23 338.64,219.59 338.3,221.61C338.08,222.61 337.96,223.29 337.74,223.51C337.306,224.025 336.772,224.447 336.17,224.75C331.24,227.44 326.42,230.01 321.5,232.7C313.65,236.96 309.28,239.65 308.5,240.43C309.96,244.35 310.96,246.37 311.52,246.37C314.32,246.37 318.47,246.26 323.96,246.03C329.45,245.81 333.6,245.7 336.4,245.7C337.52,245.7 338.19,246.15 338.3,247.15C338.64,249.05 338.75,252.53 338.75,257.46C338.75,262.16 338.64,265.3 338.3,266.87C338.08,267.88 337.52,268.44 336.62,268.44C332.7,268.44 326.76,268.22 318.81,267.88C310.85,267.54 304.81,267.32 300.88,267.32C296.62,267.32 290.35,267.43 281.84,267.88C273.32,268.22 266.94,268.44 262.79,268.44C262,268.44 261.56,267.99 261.56,267.21C261.56,266.09 261.56,264.41 261.66,262.17C261.78,259.81 261.89,258.13 261.89,257.01C261.89,255.89 261.79,254.1 261.67,251.86C261.56,249.51 261.56,247.83 261.56,246.71C261.56,246.03 261.89,245.7 262.56,245.7C265.26,245.7 269.29,245.92 274.78,246.15C280.27,246.48 284.3,246.59 286.98,246.59C290.13,246.59 291.69,245.69 291.69,244.02C291.69,239.65 290.46,236.29 288.11,233.82C286.43,232.14 283.18,230.24 278.59,228.44C273.304,226.697 268.072,224.796 262.9,222.74C262,222.28 261.56,221.5 261.56,220.27C261.56,219.26 261.56,217.91 261.66,216.01C261.78,213.99 261.89,212.65 261.89,211.64C261.89,210.64 261.89,209.17 261.79,207.27C261.67,205.37 261.67,203.91 261.67,202.9C261.67,202 262.12,201.56 262.9,201.56C264.13,201.56 267.05,202.34 271.75,203.91C285.53,208.39 294.15,213.66 297.52,219.48C298.19,220.71 298.75,221.28 299.2,221.28L315.67,211.19C326.65,204.47 333.15,201.11 335.27,201.11L335.28,201.1Z" style="fill-rule:nonzero;"/>
        </g>
    </g>
</svg>
